# Blender 4.2.3 LTS
# www.blender.org
mtllib new_portal_optimized.mtl
o oprimized_black_cordion
v -0.037261 0.638253 0.438676
v -0.037261 0.696487 0.438676
v -0.037261 0.638253 0.363245
v -0.037261 0.696487 0.363245
v 0.037261 0.638253 0.438676
v 0.037261 0.696487 0.438676
v 0.037261 0.638253 0.363245
v 0.037261 0.696487 0.363245
v -0.047247 0.667370 0.448784
v -0.047247 0.667370 0.353137
v 0.047247 0.667370 0.353137
v 0.047247 0.667370 0.448784
v -0.037261 0.696487 0.438676
v -0.037261 0.754720 0.438676
v -0.037261 0.696487 0.363245
v -0.037261 0.754720 0.363245
v 0.037261 0.696487 0.438676
v 0.037261 0.754720 0.438676
v 0.037261 0.696487 0.363245
v 0.037261 0.754720 0.363245
v -0.047247 0.725603 0.448784
v -0.047247 0.725603 0.353137
v 0.047247 0.725603 0.353137
v 0.047247 0.725603 0.448784
v -0.037261 0.754720 0.438676
v -0.037261 0.812954 0.438676
v -0.037261 0.754720 0.363245
v -0.037261 0.812954 0.363245
v 0.037261 0.754720 0.438676
v 0.037261 0.812954 0.438676
v 0.037261 0.754720 0.363245
v 0.037261 0.812954 0.363245
v -0.047247 0.783837 0.448784
v -0.047247 0.783837 0.353137
v 0.047247 0.783837 0.353137
v 0.047247 0.783837 0.448784
v -0.037261 0.812954 0.438676
v -0.037261 0.871188 0.438676
v -0.037261 0.812954 0.363245
v -0.037261 0.871188 0.363245
v 0.037261 0.812954 0.438676
v 0.037261 0.871188 0.438676
v 0.037261 0.812954 0.363245
v 0.037261 0.871188 0.363245
v -0.047247 0.842071 0.448784
v -0.047247 0.842071 0.353137
v 0.047247 0.842071 0.353137
v 0.047247 0.842071 0.448784
v -0.037261 0.871188 0.438676
v -0.037261 0.929421 0.438676
v -0.037261 0.871188 0.363245
v -0.037261 0.929421 0.363245
v 0.037261 0.871188 0.438676
v 0.037261 0.929421 0.438676
v 0.037261 0.871188 0.363245
v 0.037261 0.929421 0.363245
v -0.047247 0.900305 0.448784
v -0.047247 0.900305 0.353137
v 0.047247 0.900305 0.353137
v 0.047247 0.900305 0.448784
v -0.037261 0.929421 0.438676
v -0.037261 0.987655 0.438676
v -0.037261 0.929421 0.363245
v -0.037261 0.987655 0.363245
v 0.037261 0.929421 0.438676
v 0.037261 0.987655 0.438676
v 0.037261 0.929421 0.363245
v 0.037261 0.987655 0.363245
v -0.047247 0.958538 0.448784
v -0.047247 0.958538 0.353137
v 0.047247 0.958538 0.353137
v 0.047247 0.958538 0.448784
vn -0.9459 0.3244 -0.0000
vn -0.0000 0.3279 -0.9447
vn 0.9459 0.3244 -0.0000
vn -0.0000 0.3279 0.9447
vn -0.0000 -0.3279 0.9447
vn 0.9459 -0.3244 -0.0000
vn -0.0000 -0.3279 -0.9447
vn -0.9459 -0.3244 -0.0000
vt 0.018202 0.050627
vt 0.031531 0.011889
vt 0.029855 0.050609
vt 0.015738 0.146161
vt 0.029856 0.113234
vt 0.031514 0.151444
vt 0.018204 0.113163
vt 0.030785 0.081693
vt 0.016569 0.081716
vt 0.043594 0.051046
vt 0.041902 0.081716
vt 0.043599 0.112752
vt 0.045177 0.146297
vt 0.045177 0.017086
vt 0.015754 0.017226
s 0
usemtl texture
f 2/1/1 10/2/1 9/3/1
f 4/4/2 11/5/2 10/6/2
f 8/7/3 12/8/3 11/5/3
f 6/9/4 9/3/4 12/8/4
f 12/8/5 1/10/5 5/11/5
f 11/5/6 5/11/6 7/12/6
f 10/6/7 7/12/7 3/13/7
f 9/3/8 3/14/8 1/10/8
f 14/1/1 22/2/1 21/3/1
f 16/4/2 23/5/2 22/6/2
f 20/7/3 24/8/3 23/5/3
f 18/9/4 21/3/4 24/8/4
f 24/8/5 13/10/5 17/11/5
f 23/5/6 17/11/6 19/12/6
f 22/6/7 19/12/7 15/13/7
f 21/3/8 15/14/8 13/10/8
f 26/1/1 34/2/1 33/3/1
f 28/4/2 35/5/2 34/6/2
f 32/7/3 36/8/3 35/5/3
f 30/9/4 33/3/4 36/8/4
f 36/8/5 25/10/5 29/11/5
f 35/5/6 29/11/6 31/12/6
f 34/6/7 31/12/7 27/13/7
f 33/3/8 27/14/8 25/10/8
f 38/1/1 46/2/1 45/3/1
f 40/4/2 47/5/2 46/6/2
f 44/7/3 48/8/3 47/5/3
f 42/9/4 45/3/4 48/8/4
f 48/8/5 37/10/5 41/11/5
f 47/5/6 41/11/6 43/12/6
f 46/6/7 43/12/7 39/13/7
f 45/3/8 39/14/8 37/10/8
f 50/1/1 58/2/1 57/3/1
f 52/4/2 59/5/2 58/6/2
f 56/7/3 60/8/3 59/5/3
f 54/9/4 57/3/4 60/8/4
f 60/8/5 49/10/5 53/11/5
f 59/5/6 53/11/6 55/12/6
f 58/6/7 55/12/7 51/13/7
f 57/3/8 51/14/8 49/10/8
f 62/1/1 70/2/1 69/3/1
f 64/4/2 71/5/2 70/6/2
f 68/7/3 72/8/3 71/5/3
f 66/9/4 69/3/4 72/8/4
f 72/8/5 61/10/5 65/11/5
f 71/5/6 65/11/6 67/12/6
f 70/6/7 67/12/7 63/13/7
f 69/3/8 63/14/8 61/10/8
f 2/1/1 4/15/1 10/2/1
f 4/4/2 8/7/2 11/5/2
f 8/7/3 6/9/3 12/8/3
f 6/9/4 2/1/4 9/3/4
f 12/8/5 9/3/5 1/10/5
f 11/5/6 12/8/6 5/11/6
f 10/6/7 11/5/7 7/12/7
f 9/3/8 10/2/8 3/14/8
f 14/1/1 16/15/1 22/2/1
f 16/4/2 20/7/2 23/5/2
f 20/7/3 18/9/3 24/8/3
f 18/9/4 14/1/4 21/3/4
f 24/8/5 21/3/5 13/10/5
f 23/5/6 24/8/6 17/11/6
f 22/6/7 23/5/7 19/12/7
f 21/3/8 22/2/8 15/14/8
f 26/1/1 28/15/1 34/2/1
f 28/4/2 32/7/2 35/5/2
f 32/7/3 30/9/3 36/8/3
f 30/9/4 26/1/4 33/3/4
f 36/8/5 33/3/5 25/10/5
f 35/5/6 36/8/6 29/11/6
f 34/6/7 35/5/7 31/12/7
f 33/3/8 34/2/8 27/14/8
f 38/1/1 40/15/1 46/2/1
f 40/4/2 44/7/2 47/5/2
f 44/7/3 42/9/3 48/8/3
f 42/9/4 38/1/4 45/3/4
f 48/8/5 45/3/5 37/10/5
f 47/5/6 48/8/6 41/11/6
f 46/6/7 47/5/7 43/12/7
f 45/3/8 46/2/8 39/14/8
f 50/1/1 52/15/1 58/2/1
f 52/4/2 56/7/2 59/5/2
f 56/7/3 54/9/3 60/8/3
f 54/9/4 50/1/4 57/3/4
f 60/8/5 57/3/5 49/10/5
f 59/5/6 60/8/6 53/11/6
f 58/6/7 59/5/7 55/12/7
f 57/3/8 58/2/8 51/14/8
f 62/1/1 64/15/1 70/2/1
f 64/4/2 68/7/2 71/5/2
f 68/7/3 66/9/3 72/8/3
f 66/9/4 62/1/4 69/3/4
f 72/8/5 69/3/5 61/10/5
f 71/5/6 72/8/6 65/11/6
f 70/6/7 71/5/7 67/12/7
f 69/3/8 70/2/8 63/14/8
o simplified_white_horn
v -0.014370 1.522880 0.248439
v -0.014370 1.754572 0.043758
v -0.014370 1.503852 0.226901
v -0.014370 1.746529 0.012514
v 0.014370 1.522880 0.248439
v 0.014370 1.754572 0.043758
v 0.014370 1.503852 0.226901
v 0.014370 1.746529 0.012514
v -0.014370 1.811929 0.044762
v -0.014370 1.839628 0.012507
v 0.014370 1.811929 0.044762
v 0.014370 1.839628 0.012507
v 0.014370 1.618243 0.164193
v -0.014370 1.618243 0.164193
v 0.014370 1.649868 0.136255
v -0.014370 1.649868 0.136255
v 0.014370 1.696204 0.138196
v 0.014370 1.674684 0.165064
v -0.014370 1.674684 0.165064
v -0.014370 1.696204 0.138196
vn -1.0000 -0.0000 -0.0000
vn -0.0000 -0.6621 -0.7494
vn 1.0000 -0.0000 -0.0000
vn -0.0000 0.6621 0.7494
vn -0.0000 -0.7494 0.6621
vn -0.0000 0.7587 0.6515
vn -0.0000 -0.0175 0.9998
vn -0.0000 -0.0001 -1.0000
vn -0.0000 0.7805 0.6251
vn -0.0000 -0.0154 0.9999
vn -0.0000 0.0418 -0.9991
vt 0.081967 0.755468
vt 0.068843 0.825959
vt 0.068843 0.678092
vt 0.055719 0.678092
vt 0.055719 0.825959
vt 0.042596 0.819266
vt 0.042596 0.755468
vt 0.042596 0.736198
vt 0.029472 0.678092
vt 0.042596 0.678092
vt 0.375000 0.500000
vt 0.125000 0.750000
vt 0.125000 0.500000
vt 0.024911 0.838591
vt 0.068843 0.868472
vt 0.055719 0.887887
vt 0.055719 0.868472
vt 0.099652 0.838591
vt 0.096987 0.857823
vt 0.055719 0.914083
vt 0.068843 0.887887
vt 0.068843 0.914083
vt 0.048069 0.770208
vt 0.012216 0.740275
vt 0.048069 0.740275
vt 0.074376 0.710672
vt 0.026090 0.711949
vt 0.029472 0.819266
vt 0.029472 0.755468
vt 0.106861 0.770208
vt 0.106861 0.740275
vt 0.074376 0.799811
vt 0.073584 0.680749
vt 0.025299 0.682026
vt 0.081967 0.678092
vt 0.081967 0.736198
vt 0.081967 0.819266
vt 0.029472 0.736198
vt 0.375000 0.750000
vt 0.027575 0.857823
vt 0.012216 0.770208
vt 0.026090 0.798535
s 0
usemtl texture
f 88/16/9 76/17/9 75/18/9
f 76/17/10 79/19/10 75/18/10
f 80/20/11 78/21/11 87/22/11
f 85/23/12 73/24/12 77/25/12
f 79/26/13 73/27/13 75/28/13
f 80/20/11 83/29/11 78/21/11
f 82/30/14 83/31/14 84/32/14
f 76/17/9 81/33/9 82/34/9
f 78/35/15 81/36/15 74/37/15
f 76/17/16 84/32/16 80/20/16
f 90/38/17 92/39/17 91/40/17
f 88/41/9 91/40/9 92/42/9
f 87/22/12 74/43/12 88/44/12
f 85/45/18 91/40/18 86/46/18
f 87/47/11 90/38/11 85/45/11
f 87/48/19 92/42/19 89/49/19
f 75/18/9 73/50/9 86/51/9
f 88/16/9 74/52/9 76/17/9
f 75/18/9 86/51/9 88/16/9
f 76/17/10 80/20/10 79/19/10
f 77/25/11 79/19/11 85/23/11
f 79/19/11 80/20/11 87/22/11
f 85/23/11 79/19/11 87/22/11
f 85/23/12 86/53/12 73/24/12
f 79/26/13 77/54/13 73/27/13
f 80/20/11 84/55/11 83/29/11
f 82/30/14 81/36/14 83/31/14
f 76/17/9 74/52/9 81/33/9
f 78/35/15 83/31/15 81/36/15
f 76/17/16 82/30/16 84/32/16
f 90/38/17 89/56/17 92/39/17
f 88/41/9 86/46/9 91/40/9
f 87/22/12 78/21/12 74/43/12
f 85/45/18 90/38/18 91/40/18
f 87/47/11 89/57/11 90/38/11
f 87/48/19 88/41/19 92/42/19
o new_side_white_adornment
v -0.013809 0.599159 0.558299
v -0.013809 1.051233 0.558299
v -0.013809 0.599159 0.530680
v -0.013809 1.051233 0.530680
v 0.013809 0.599159 0.558299
v 0.013809 1.051233 0.558299
v 0.013809 0.599159 0.530680
v 0.013809 1.051233 0.530680
v 0.013809 0.990196 0.558299
v -0.013809 0.990196 0.558299
v -0.013809 0.889908 0.558299
v 0.013809 0.889908 0.558299
v -0.013809 0.870221 0.558299
v 0.013809 0.870221 0.558299
v -0.013809 0.770682 0.558299
v 0.013809 0.770682 0.558299
v -0.013809 0.755560 0.558299
v 0.013809 0.755560 0.558299
v -0.013809 0.656412 0.558299
v 0.013809 0.656412 0.558299
v -0.013809 0.914943 0.572803
v -0.013809 0.965161 0.572803
v 0.013809 0.965161 0.572803
v 0.013809 0.914943 0.572803
v -0.013809 0.794593 0.572803
v -0.013809 0.846310 0.572803
v 0.013809 0.846310 0.572803
v 0.013809 0.794593 0.572803
v -0.013809 0.679483 0.572803
v -0.013809 0.732490 0.572803
v 0.013809 0.732490 0.572803
v 0.013809 0.679483 0.572803
v -0.013809 0.693138 0.601125
v -0.013809 0.718834 0.601125
v 0.013809 0.718834 0.601125
v 0.013809 0.693138 0.601125
v -0.013809 0.806576 0.600695
v -0.013809 0.834327 0.600695
v 0.013809 0.834327 0.600695
v 0.013809 0.806576 0.600695
v -0.013809 0.926395 0.601284
v -0.013809 0.953709 0.601284
v 0.013809 0.953709 0.601284
v 0.013809 0.926395 0.601284
vn -1.0000 -0.0000 -0.0000
vn -0.0000 -0.0000 -1.0000
vn 1.0000 -0.0000 -0.0000
vn -0.0000 -0.0000 1.0000
vn -0.0000 0.5322 0.8466
vn -0.0000 -0.5322 0.8466
vn -0.0000 -0.5186 0.8550
vn -0.0000 0.5186 0.8550
vn -0.0000 -0.5013 0.8653
vn -0.0000 0.5013 0.8653
vn -0.0000 -0.9008 0.4343
vn -0.0000 0.9008 0.4343
vn -0.0000 -0.9188 0.3947
vn -0.0000 0.9188 0.3947
vn -0.0000 -0.9278 0.3731
vn -0.0000 0.9278 0.3731
vt 0.069094 0.683878
vt 0.084888 0.781965
vt 0.084888 0.838888
vt 0.069094 0.942401
vt 0.053300 0.683878
vt 0.053300 0.942401
vt 0.037506 0.850146
vt 0.037506 0.838888
vt 0.037506 0.716619
vt 0.021712 0.683878
vt 0.037506 0.683878
vt 0.021712 0.907497
vt 0.037506 0.942401
vt 0.021712 0.942401
vt 0.029212 0.893180
vt 0.029212 0.864462
vt 0.012925 0.886631
vt 0.012925 0.871011
vt 0.021712 0.838888
vt 0.021712 0.850146
vt 0.073852 0.809866
vt 0.098935 0.785118
vt 0.098935 0.809866
vt 0.037506 0.773317
vt 0.021712 0.781965
vt 0.021712 0.773318
vt 0.098935 0.679923
vt 0.073852 0.704672
vt 0.073852 0.679923
vt 0.029212 0.795639
vt 0.013262 0.818361
vt 0.013262 0.802492
vt 0.093183 0.729812
vt 0.109379 0.752315
vt 0.093183 0.760124
vt 0.073818 0.679923
vt 0.048735 0.705322
vt 0.048735 0.679923
vt 0.084888 0.850146
vt 0.093183 0.893180
vt 0.084888 0.907497
vt 0.048735 0.811061
vt 0.073818 0.785663
vt 0.073818 0.811061
vt 0.023619 0.679923
vt 0.048701 0.706199
vt 0.023618 0.706199
vt 0.084888 0.773317
vt 0.048701 0.813039
vt 0.023618 0.786763
vt 0.048701 0.786763
vt 0.029212 0.729812
vt 0.093183 0.825214
vt 0.037506 0.781965
vt 0.029212 0.825214
vt 0.098935 0.733227
vt 0.073852 0.756563
vt 0.073852 0.733227
vt 0.098935 0.704672
vt 0.073852 0.785118
vt 0.098935 0.756563
vt 0.013016 0.752316
vt 0.013016 0.737621
vt 0.073818 0.732891
vt 0.048735 0.758093
vt 0.048735 0.732891
vt 0.093183 0.795639
vt 0.109133 0.818361
vt 0.073818 0.705322
vt 0.048735 0.785663
vt 0.073818 0.758093
vt 0.023618 0.734078
vt 0.048701 0.758884
vt 0.023618 0.758884
vt 0.093183 0.864462
vt 0.109470 0.886631
vt 0.048701 0.734078
vt 0.084888 0.683878
vt 0.084888 0.716619
vt 0.084888 0.942401
vt 0.037506 0.907497
vt 0.021712 0.716619
vt 0.109379 0.737621
vt 0.048701 0.679923
vt 0.023618 0.813039
vt 0.029212 0.760125
vt 0.109133 0.802492
vt 0.109470 0.871011
s 0
usemtl texture
f 95/58/20 107/59/20 105/60/20
f 96/61/21 99/62/21 95/58/21
f 100/63/22 104/64/22 106/65/22
f 112/66/23 93/67/23 97/68/23
f 102/69/23 98/70/23 94/71/23
f 104/64/22 115/72/22 116/73/22
f 116/73/22 135/74/22 136/75/22
f 105/76/23 104/64/23 103/77/23
f 109/78/24 123/79/24 110/80/24
f 110/81/23 107/82/23 109/83/23
f 112/84/25 121/85/25 111/86/25
f 120/87/22 131/88/22 132/89/22
f 121/90/20 126/91/20 122/92/20
f 108/93/26 117/94/26 107/95/26
f 103/96/20 114/97/20 102/98/20
f 105/99/27 119/100/27 106/101/27
f 103/102/28 116/103/28 113/104/28
f 109/105/20 121/90/20 122/92/20
f 101/106/29 114/107/29 115/108/29
f 110/81/22 124/109/22 112/66/22
f 107/59/20 118/110/20 105/60/20
f 108/111/22 119/112/22 120/87/22
f 128/113/23 126/114/23 125/115/23
f 124/116/30 125/115/30 121/85/30
f 122/117/31 127/118/31 123/79/31
f 124/109/22 127/119/22 128/120/22
f 132/121/23 130/122/23 129/123/23
f 117/124/20 130/125/20 118/110/20
f 120/126/32 129/123/32 117/94/32
f 118/127/33 131/128/33 119/100/33
f 133/129/23 135/130/23 134/131/23
f 113/132/20 134/133/20 114/97/20
f 113/104/34 136/134/34 133/129/34
f 115/108/35 134/131/35 135/130/35
f 95/58/20 93/135/20 111/136/20
f 95/58/20 111/136/20 109/105/20
f 94/137/20 96/61/20 102/98/20
f 96/61/20 95/58/20 105/60/20
f 102/98/20 96/61/20 103/96/20
f 103/96/20 96/61/20 105/60/20
f 95/58/20 109/105/20 107/59/20
f 96/61/21 100/63/21 99/62/21
f 97/68/22 99/62/22 112/66/22
f 99/62/22 100/63/22 106/65/22
f 112/66/22 99/62/22 110/81/22
f 100/63/22 98/70/22 101/138/22
f 100/63/22 101/138/22 104/64/22
f 110/81/22 99/62/22 108/111/22
f 108/111/22 99/62/22 106/65/22
f 112/66/23 111/139/23 93/67/23
f 102/69/23 101/138/23 98/70/23
f 104/64/22 101/138/22 115/72/22
f 116/73/22 115/72/22 135/74/22
f 105/76/23 106/65/23 104/64/23
f 109/78/24 122/117/24 123/79/24
f 110/81/23 108/111/23 107/82/23
f 112/84/25 124/116/25 121/85/25
f 120/87/22 119/112/22 131/88/22
f 121/90/20 125/140/20 126/91/20
f 108/93/26 120/126/26 117/94/26
f 103/96/20 113/132/20 114/97/20
f 105/99/27 118/127/27 119/100/27
f 103/102/28 104/141/28 116/103/28
f 109/105/20 111/136/20 121/90/20
f 101/106/29 102/142/29 114/107/29
f 110/81/22 123/143/22 124/109/22
f 107/59/20 117/124/20 118/110/20
f 108/111/22 106/65/22 119/112/22
f 128/113/23 127/118/23 126/114/23
f 124/116/30 128/113/30 125/115/30
f 122/117/31 126/114/31 127/118/31
f 124/109/22 123/143/22 127/119/22
f 132/121/23 131/128/23 130/122/23
f 117/124/20 129/144/20 130/125/20
f 120/126/32 132/121/32 129/123/32
f 118/127/33 130/122/33 131/128/33
f 133/129/23 136/134/23 135/130/23
f 113/132/20 133/145/20 134/133/20
f 113/104/34 116/103/34 136/134/34
f 115/108/35 114/107/35 134/131/35
o spriale_optimized
v -0.014033 0.339126 0.362766
v -0.014033 0.448960 0.519271
v -0.014033 0.362099 0.346644
v -0.014033 0.471933 0.503149
v 0.014033 0.339126 0.362766
v 0.014033 0.448960 0.519271
v 0.014033 0.362099 0.346644
v 0.014033 0.471933 0.503149
v -0.014033 0.312211 0.309442
v -0.014033 0.302397 0.335736
v 0.014033 0.312211 0.309442
v 0.014033 0.302397 0.335736
v -0.014033 0.243131 0.304286
v -0.014033 0.243050 0.332351
v 0.014033 0.243131 0.304286
v 0.014033 0.243050 0.332351
v -0.014033 0.196452 0.330384
v -0.014033 0.216174 0.350352
v 0.014033 0.196452 0.330384
v 0.014033 0.216174 0.350352
v -0.014033 0.177231 0.385615
v -0.014033 0.205286 0.386373
v 0.014033 0.177231 0.385615
v 0.014033 0.205286 0.386373
v -0.014033 0.197164 0.436422
v -0.014033 0.218898 0.418666
v 0.014033 0.197164 0.436422
v 0.014033 0.218898 0.418666
v -0.014033 0.242315 0.457043
v -0.014033 0.243415 0.428999
v 0.014033 0.242315 0.457043
v 0.014033 0.243415 0.428999
v -0.014033 0.283624 0.440883
v -0.014033 0.268816 0.417042
v 0.014033 0.283624 0.440883
v 0.014033 0.268816 0.417042
v -0.014033 0.307298 0.408432
v -0.014033 0.285928 0.390238
v 0.014033 0.307298 0.408432
v 0.014033 0.285928 0.390238
vn -1.0000 -0.0000 -0.0000
vn -0.0000 0.8185 -0.5744
vn 1.0000 -0.0000 -0.0000
vn -0.0000 -0.8185 0.5744
vn -0.0000 -0.5927 0.8054
vn -0.0000 -0.0569 0.9984
vn -0.0000 0.5978 -0.8016
vn -0.0000 -0.4880 -0.8728
vn -0.0000 0.0744 -0.9972
vn -0.0000 0.5565 0.8309
vn -0.0000 0.9215 -0.3884
vn -0.0000 0.9572 0.2893
vn -0.0000 -0.9444 -0.3287
vn -0.0000 -0.9309 0.3652
vn -0.0000 0.3884 -0.9215
vn -0.0000 -0.4154 0.9096
vn -0.0000 -0.8429 -0.5381
vn -0.0000 -0.4259 -0.9048
vn -0.0000 0.3643 0.9313
vn -0.0000 0.6483 -0.7614
vn -0.0000 0.8079 0.5894
vt 0.047741 0.679356
vt 0.056279 0.730131
vt 0.048803 0.730287
vt 0.055217 0.679200
vt 0.063755 0.729975
vt 0.062693 0.679044
vt 0.071231 0.729819
vt 0.066523 0.977122
vt 0.049971 0.864359
vt 0.066523 0.864359
vt 0.066523 0.837463
vt 0.049971 0.837463
vt 0.066523 0.802405
vt 0.056624 0.746708
vt 0.051422 0.745985
vt 0.045170 0.741882
vt 0.069268 0.745613
vt 0.064485 0.765005
vt 0.057306 0.779407
vt 0.057009 0.765161
vt 0.064100 0.746553
vt 0.075343 0.741253
vt 0.083785 0.757010
vt 0.037392 0.757977
vt 0.032953 0.751960
vt 0.096588 0.750821
vt 0.110440 0.748802
vt 0.097987 0.758167
vt 0.087970 0.750813
vt 0.023251 0.759725
vt 0.024342 0.752327
vt 0.049971 0.802405
vt 0.066523 0.783328
vt 0.049971 0.761134
vt 0.066523 0.740466
vt 0.066523 0.761134
vt 0.010419 0.750887
vt 0.016327 0.746304
vt 0.049971 0.783328
vt 0.064782 0.779251
vt 0.057631 0.794984
vt 0.106129 0.735303
vt 0.106646 0.723336
vt 0.113573 0.734602
vt 0.065107 0.794829
vt 0.057934 0.809523
vt 0.104345 0.744469
vt 0.006696 0.736830
vt 0.014164 0.737221
vt 0.102239 0.729377
vt 0.095108 0.720778
vt 0.013148 0.725286
vt 0.017803 0.731138
vt 0.049971 0.740466
vt 0.066523 0.724775
vt 0.065410 0.809367
vt 0.058210 0.822745
vt 0.049971 0.708217
vt 0.066523 0.689462
vt 0.066523 0.708217
vt 0.024569 0.722249
vt 0.025145 0.729704
vt 0.049971 0.724775
vt 0.065686 0.822589
vt 0.058456 0.834561
vt 0.066155 0.845105
vt 0.058835 0.852737
vt 0.058679 0.845261
vt 0.065932 0.834405
vt 0.094844 0.728251
vt 0.085052 0.724442
vt 0.034769 0.725491
vt 0.033044 0.732767
vt 0.070169 0.678888
vt 0.049971 0.977122
vt 0.049971 0.689462
vt 0.066311 0.852581
vt 0.087079 0.731640
s 0
usemtl texture
f 138/146/36 139/147/36 137/148/36
f 140/149/37 143/150/37 139/147/37
f 144/151/38 141/152/38 143/150/38
f 142/153/39 137/154/39 141/155/39
f 137/154/40 148/156/40 141/155/40
f 146/157/41 152/158/41 148/156/41
f 143/150/42 145/159/42 139/147/42
f 137/148/36 145/160/36 146/161/36
f 141/152/38 147/162/38 143/150/38
f 151/163/43 153/164/43 149/165/43
f 147/166/44 149/165/44 145/159/44
f 148/167/38 151/168/38 147/162/38
f 146/161/36 149/169/36 150/170/36
f 156/171/38 159/172/38 155/173/38
f 152/174/38 155/173/38 151/168/38
f 150/170/36 153/175/36 154/176/36
f 150/177/45 156/178/45 152/158/45
f 158/179/46 164/180/46 160/181/46
f 154/176/36 157/182/36 158/183/36
f 154/184/47 160/181/47 156/178/47
f 155/185/48 157/186/48 153/164/48
f 164/187/38 167/188/38 163/189/38
f 159/190/49 161/191/49 157/186/49
f 160/192/38 163/189/38 159/172/38
f 158/183/36 161/193/36 162/194/36
f 168/195/38 171/196/38 167/188/38
f 162/194/36 165/197/36 166/198/36
f 162/199/50 168/200/50 164/180/50
f 163/201/51 165/202/51 161/191/51
f 170/203/52 176/204/52 172/205/52
f 166/198/36 169/206/36 170/207/36
f 166/208/53 172/205/53 168/200/53
f 167/209/54 169/210/54 165/202/54
f 175/211/55 174/212/55 173/213/55
f 171/214/56 173/213/56 169/210/56
f 172/215/38 175/216/38 171/196/38
f 170/207/36 173/217/36 174/218/36
f 138/146/36 140/149/36 139/147/36
f 140/149/37 144/151/37 143/150/37
f 144/151/38 142/219/38 141/152/38
f 142/153/39 138/220/39 137/154/39
f 137/154/40 146/157/40 148/156/40
f 146/157/41 150/177/41 152/158/41
f 143/150/42 147/166/42 145/159/42
f 137/148/36 139/147/36 145/160/36
f 141/152/38 148/167/38 147/162/38
f 151/163/43 155/185/43 153/164/43
f 147/166/44 151/163/44 149/165/44
f 148/167/38 152/174/38 151/168/38
f 146/161/36 145/160/36 149/169/36
f 156/171/38 160/192/38 159/172/38
f 152/174/38 156/171/38 155/173/38
f 150/170/36 149/169/36 153/175/36
f 150/177/45 154/184/45 156/178/45
f 158/179/46 162/199/46 164/180/46
f 154/176/36 153/175/36 157/182/36
f 154/184/47 158/179/47 160/181/47
f 155/185/48 159/190/48 157/186/48
f 164/187/38 168/195/38 167/188/38
f 159/190/49 163/201/49 161/191/49
f 160/192/38 164/187/38 163/189/38
f 158/183/36 157/182/36 161/193/36
f 168/195/38 172/215/38 171/196/38
f 162/194/36 161/193/36 165/197/36
f 162/199/50 166/208/50 168/200/50
f 163/201/51 167/209/51 165/202/51
f 170/203/52 174/221/52 176/204/52
f 166/198/36 165/197/36 169/206/36
f 166/208/53 170/203/53 172/205/53
f 167/209/54 171/214/54 169/210/54
f 175/211/55 176/222/55 174/212/55
f 171/214/56 175/211/56 173/213/56
f 172/215/38 176/223/38 175/216/38
f 170/207/36 169/206/36 173/217/36
o Plane
v -0.037161 0.987777 0.438523
v 0.037229 0.987777 0.438523
v -0.037161 0.987777 0.363350
v 0.037229 0.987777 0.363350
vn -0.0000 1.0000 -0.0000
vt 0.065509 0.014955
vt 0.013931 0.067076
vt 0.013931 0.014955
vt 0.065509 0.067076
s 0
usemtl texture
f 178/224/57 179/225/57 177/226/57
f 178/224/57 180/227/57 179/225/57
o simplified_top_blocks_white
v -0.042506 1.229083 0.336153
v -0.042506 1.574757 0.053149
v -0.042506 1.174955 0.270598
v -0.042506 1.520629 -0.012406
v 0.042506 1.229083 0.336153
v 0.042506 1.574757 0.053149
v 0.042506 1.174955 0.270598
v 0.042506 1.520629 -0.012406
v -0.032475 1.584260 0.032405
v -0.032475 1.542905 -0.017680
v 0.032475 1.542905 -0.017680
v 0.032475 1.584260 0.032405
v -0.032872 1.160714 0.294828
v -0.032872 1.202575 0.345525
v 0.032872 1.160714 0.294828
v 0.032872 1.202575 0.345525
vn -1.0000 -0.0000 -0.0000
vn -0.0000 -0.6335 -0.7738
vn 1.0000 -0.0000 -0.0000
vn -0.0000 0.6335 0.7738
vn -0.0000 -0.8621 -0.5067
vn -0.8985 0.3384 -0.2794
vn -0.0000 0.7711 -0.6367
vn -0.0000 0.9091 0.4165
vn -0.0000 -0.2304 -0.9731
vn 0.8985 0.3384 -0.2794
vn -0.0000 -0.7711 0.6367
vn -0.9394 -0.2643 0.2182
vn 0.9394 -0.2643 0.2182
vn -0.0000 0.3333 0.9428
vt 0.114022 0.696757
vt 0.059900 0.980947
vt 0.059900 0.696531
vt 0.005778 0.696531
vt 0.113508 0.981879
vt 0.058784 0.694527
vt 0.113508 0.694298
vt 0.058784 0.982107
vt 0.004060 0.694527
vt 0.053767 0.678638
vt 0.114022 0.981174
vt 0.066279 0.995524
vt 0.439107 0.643811
vt 0.449918 0.654806
vt 0.480203 0.631656
vt 0.010516 0.996795
vt 0.004060 0.982107
vt 0.012164 0.995522
vt 0.005778 0.980947
vt 0.107057 0.996618
vt 0.065247 0.996792
vt 0.311068 0.238852
vt 0.231991 0.264269
vt 0.276189 0.267681
vt 0.107953 0.678835
vt 0.064921 0.676405
vt 0.107242 0.676229
vt 0.052582 0.676427
vt 0.011911 0.678638
vt 0.107630 0.995697
vt 0.407273 0.666797
vt 0.052327 0.996795
vt 0.053514 0.995522
vt 0.267409 0.233122
vt 0.066097 0.678660
vt 0.010261 0.676427
s 0
usemtl texture
f 181/228/58 184/229/58 183/230/58
f 184/229/59 187/231/59 183/230/59
f 188/232/60 185/233/60 187/234/60
f 186/235/61 181/236/61 185/233/61
f 187/231/62 193/237/62 183/230/62
f 182/238/63 190/239/63 184/229/63
f 190/240/64 192/241/64 191/242/64
f 186/235/65 189/243/65 182/244/65
f 184/229/66 191/245/66 188/246/66
f 186/235/67 191/247/67 192/248/67
f 195/249/68 194/250/68 193/251/68
f 183/230/69 194/252/69 181/228/69
f 187/234/70 196/253/70 195/254/70
f 181/236/71 196/255/71 185/233/71
f 181/228/58 182/238/58 184/229/58
f 184/229/59 188/246/59 187/231/59
f 188/232/60 186/235/60 185/233/60
f 186/235/61 182/244/61 181/236/61
f 187/231/62 195/256/62 193/237/62
f 182/238/63 189/257/63 190/239/63
f 190/240/64 189/258/64 192/241/64
f 186/235/65 192/259/65 189/243/65
f 184/229/66 190/260/66 191/245/66
f 186/235/67 188/232/67 191/247/67
f 195/249/68 196/261/68 194/250/68
f 183/230/69 193/262/69 194/252/69
f 187/234/70 185/233/70 196/253/70
f 181/236/71 194/263/71 196/255/71
o white_block_simplified
v -0.014686 1.199317 0.530573
v -0.014686 1.459942 0.299493
v -0.014686 1.179831 0.508595
v -0.014686 1.440456 0.277516
v 0.014686 1.199317 0.530573
v 0.014686 1.459942 0.299493
v 0.014686 1.179831 0.508595
v 0.014686 1.440456 0.277516
vn -1.0000 -0.0000 -0.0000
vn -0.0000 -0.6634 -0.7482
vn 1.0000 -0.0000 -0.0000
vn -0.0000 0.6634 0.7482
vn -0.0000 -0.7482 0.6634
vn -0.0000 0.7482 -0.6634
vt 0.072673 0.853362
vt 0.059092 0.692308
vt 0.072673 0.692308
vt 0.059092 0.853362
vt 0.045511 0.692308
vt 0.045511 0.853362
vt 0.031929 0.692308
vt 0.086254 0.853362
vt 0.086254 0.692308
vt 0.086254 0.678726
vt 0.072673 0.678726
vt 0.072673 0.866943
vt 0.086254 0.866943
vt 0.031929 0.853362
s 0
usemtl texture
f 198/264/72 199/265/72 197/266/72
f 200/267/73 203/268/73 199/265/73
f 204/269/74 201/270/74 203/268/74
f 202/271/75 197/266/75 201/272/75
f 203/273/76 197/266/76 199/274/76
f 200/275/77 202/271/77 204/276/77
f 198/264/72 200/267/72 199/265/72
f 200/267/73 204/269/73 203/268/73
f 204/269/74 202/277/74 201/270/74
f 202/271/75 198/264/75 197/266/75
f 203/273/76 201/272/76 197/266/76
f 200/275/77 198/264/77 202/271/77
o white_block_simplified.001
v -0.011005 1.240598 0.507231
v -0.011005 1.286342 0.466673
v -0.011005 1.232455 0.498047
v -0.011005 1.278199 0.457489
v 0.011005 1.240598 0.507231
v 0.011005 1.286342 0.466673
v 0.011005 1.232455 0.498047
v 0.011005 1.278199 0.457489
v -0.011005 1.318363 0.438282
v -0.011005 1.364108 0.397723
v -0.011005 1.310220 0.429098
v -0.011005 1.355965 0.388539
v 0.011005 1.318363 0.438282
v 0.011005 1.364108 0.397723
v 0.011005 1.310220 0.429098
v 0.011005 1.355965 0.388539
v -0.011005 1.396129 0.369332
v -0.011005 1.441873 0.328773
v -0.011005 1.387986 0.360148
v -0.011005 1.433730 0.319589
v 0.011005 1.396129 0.369332
v 0.011005 1.441873 0.328773
v 0.011005 1.387986 0.360148
v 0.011005 1.433730 0.319589
vn -1.0000 -0.0000 -0.0000
vn 1.0000 -0.0000 -0.0000
vn -0.0000 0.6634 0.7482
vn -0.0000 -0.7482 0.6634
vn -0.0000 0.7482 -0.6634
vt 0.441259 0.231996
vt 0.383833 0.242440
vt 0.398960 0.228285
vt 0.457365 0.199490
vt 0.399939 0.209934
vt 0.379139 0.197748
vt 0.442238 0.213644
vt 0.462059 0.244181
s 0
usemtl texture
f 206/278/78 207/279/78 205/280/78
f 212/281/79 209/282/79 211/283/79
f 210/284/80 205/280/80 209/282/80
f 211/283/81 205/280/81 207/279/81
f 208/285/82 210/284/82 212/281/82
f 214/278/78 215/279/78 213/280/78
f 220/281/79 217/282/79 219/283/79
f 218/284/80 213/280/80 217/282/80
f 219/283/81 213/280/81 215/279/81
f 216/285/82 218/284/82 220/281/82
f 222/278/78 223/279/78 221/280/78
f 228/281/79 225/282/79 227/283/79
f 226/284/80 221/280/80 225/282/80
f 227/283/81 221/280/81 223/279/81
f 224/285/82 226/284/82 228/281/82
f 206/278/78 208/285/78 207/279/78
f 212/281/79 210/284/79 209/282/79
f 210/284/80 206/278/80 205/280/80
f 211/283/81 209/282/81 205/280/81
f 208/285/82 206/278/82 210/284/82
f 214/278/78 216/285/78 215/279/78
f 220/281/79 218/284/79 217/282/79
f 218/284/80 214/278/80 213/280/80
f 219/283/81 217/282/81 213/280/81
f 216/285/82 214/278/82 218/284/82
f 222/278/78 224/285/78 223/279/78
f 228/281/79 226/284/79 225/282/79
f 226/284/80 222/278/80 221/280/80
f 227/283/81 225/282/81 221/280/81
f 224/285/82 222/278/82 226/284/82
o golden_horn_optimized
v -0.024896 1.654104 -0.037511
v -0.024896 1.673787 -0.035314
v -0.038901 1.665044 -0.046255
v -0.024896 1.952789 -0.103122
v -0.024896 1.966794 -0.117127
v -0.038901 1.952789 -0.117127
v -0.024896 1.623020 -0.076409
v -0.038901 1.633960 -0.085153
v -0.024896 1.625217 -0.096094
v -0.024896 1.936123 -0.166920
v -0.024896 1.922118 -0.180925
v -0.038901 1.922118 -0.166920
v 0.024896 1.654104 -0.037511
v 0.038901 1.665044 -0.046255
v 0.024896 1.673787 -0.035314
v 0.024896 1.966794 -0.117127
v 0.024896 1.952789 -0.103122
v 0.038901 1.952789 -0.117127
v 0.024896 1.623020 -0.076409
v 0.024896 1.625217 -0.096094
v 0.038901 1.633960 -0.085153
v 0.024896 1.936123 -0.166920
v 0.038901 1.922118 -0.166920
v 0.024896 1.922118 -0.180925
v -0.027549 1.756737 -0.101781
v -0.043046 1.750999 -0.116177
v -0.027549 1.724862 -0.181755
v -0.043046 1.730600 -0.167359
v 0.043046 1.730600 -0.167359
v 0.027549 1.724862 -0.181755
v 0.027549 1.756737 -0.101781
v 0.043046 1.750999 -0.116177
vn -0.0000 0.0068 1.0000
vn 0.9997 0.0217 -0.0086
vn -0.0000 0.8514 -0.5245
vn -0.9997 0.0217 -0.0086
vn -0.0000 0.0042 -1.0000
vn -0.5774 -0.0906 0.8114
vn -0.5774 0.5774 0.5774
vn -0.5773 -0.8115 -0.0906
vn -0.5773 0.5774 -0.5774
vn 0.5774 -0.0906 0.8114
vn 0.5774 0.5774 0.5774
vn 0.5773 -0.8115 -0.0906
vn 0.5773 0.5774 -0.5774
vn -0.7071 -0.5524 0.4414
vn -0.6840 0.0175 0.7293
vn -0.6483 0.6483 -0.3993
vn -0.6847 -0.4855 -0.5436
vn -0.0000 -0.9938 -0.1109
vn -0.0000 0.7071 -0.7071
vn 0.6847 -0.4855 -0.5436
vn 0.7071 -0.5524 0.4414
vn 0.6483 0.6483 -0.3993
vn 0.6942 0.4338 0.5744
vn -0.0000 -0.1109 0.9938
vn -0.0000 0.7071 0.7071
vn 0.7070 0.0144 0.7070
vn 0.7070 0.0169 -0.7070
vn -0.7070 0.0169 -0.7070
vn -0.7070 0.4283 0.5627
vn -0.0000 -0.6519 -0.7583
vn -0.9993 -0.0292 0.0233
vn 0.9993 -0.0292 0.0233
vn -0.0000 0.6253 0.7804
vn 0.9997 0.0205 -0.0126
vn -0.9997 0.0205 -0.0126
vn -0.7070 0.0144 0.7070
vn -0.7064 -0.4759 -0.5239
vn 0.7064 -0.4759 -0.5239
vn 0.7070 0.4283 0.5627
vn 0.6840 0.0175 0.7293
vn 0.6781 0.0122 -0.7349
vn -0.6781 0.0122 -0.7349
vn -0.6942 0.4338 0.5744
vn -0.9994 -0.0320 0.0128
vn 0.9994 -0.0320 0.0128
vt 0.357030 0.768911
vt 0.284488 0.497725
vt 0.360699 0.497725
vt 0.215077 0.937269
vt 0.208654 0.690407
vt 0.284344 0.681513
vt 0.288157 0.877197
vt 0.357030 0.796306
vt 0.357030 0.877197
vt 0.206335 0.694012
vt 0.212686 0.938071
vt 0.281166 0.685218
vt 0.353957 0.775867
vt 0.280693 0.500303
vt 0.357662 0.500303
vt 0.377465 0.525799
vt 0.390185 0.546260
vt 0.366105 0.547046
vt 0.387435 0.708713
vt 0.376670 0.726884
vt 0.366316 0.708476
vt 0.381369 0.487623
vt 0.396098 0.512490
vt 0.367198 0.512812
vt 0.376634 0.743917
vt 0.364781 0.723689
vt 0.388226 0.723538
vt 0.406677 0.497725
vt 0.419594 0.521884
vt 0.392213 0.520991
vt 0.376574 0.800781
vt 0.362611 0.777211
vt 0.390005 0.776903
vt 0.403472 0.486315
vt 0.417609 0.509073
vt 0.390832 0.509936
vt 0.376451 0.733451
vt 0.367461 0.713326
vt 0.389385 0.715603
vt 0.196009 0.503517
vt 0.144448 0.555587
vt 0.206849 0.528338
vt 0.388798 0.499628
vt 0.366316 0.493243
vt 0.210247 0.965046
vt 0.136047 0.960921
vt 0.133608 0.987895
vt 0.398429 0.697714
vt 0.367198 0.704602
vt 0.460826 0.659823
vt 0.398139 0.684758
vt 0.398139 0.659823
vt 0.284398 0.803535
vt 0.353957 0.803535
vt 0.396123 0.681563
vt 0.425322 0.686685
vt 0.198209 0.497725
vt 0.146056 0.550393
vt 0.135092 0.525288
vt 0.212610 0.964553
vt 0.137559 0.960381
vt 0.390149 0.668049
vt 0.419594 0.675254
vt 0.462691 0.675399
vt 0.393818 0.702794
vt 0.393818 0.675399
vt 0.288157 0.796306
vt 0.360843 0.506006
vt 0.386585 0.500999
vt 0.389866 0.496779
vt 0.392001 0.675590
vt 0.464165 0.850192
vt 0.460826 0.684758
vt 0.209173 0.522831
vt 0.462691 0.702794
vt 0.390149 0.849820
vt 0.288157 0.768911
vt 0.284398 0.775867
vt 0.133608 0.530767
vt 0.135092 0.987665
vt 0.390005 0.497725
vt 0.410660 0.497093
vt 0.364781 0.490162
vt 0.366105 0.681927
vt 0.394800 0.850192
vt 0.466360 0.849820
s 0
usemtl texture
f 245/286/83 253/287/83 259/288/83
f 251/289/84 260/290/84 257/291/84
f 238/292/85 244/293/85 250/294/85
f 254/295/86 240/296/86 256/297/86
f 239/298/87 258/299/87 255/300/87
f 229/301/88 230/302/88 231/303/88
f 232/304/89 233/305/89 234/306/89
f 235/307/90 236/308/90 237/309/90
f 238/310/91 239/311/91 240/312/91
f 241/313/92 242/314/92 243/315/92
f 244/316/93 245/317/93 246/318/93
f 247/319/94 248/320/94 249/321/94
f 250/322/95 251/323/95 252/324/95
f 235/325/96 231/326/96 236/327/96
f 253/328/97 234/306/97 254/329/97
f 238/330/98 234/331/98 233/332/98
f 237/309/99 256/333/99 255/334/99
f 235/335/100 248/336/100 247/337/100
f 250/338/101 239/298/101 238/339/101
f 257/340/102 248/320/102 258/341/102
f 247/342/103 242/343/103 241/344/103
f 250/345/104 246/346/104 251/289/104
f 259/347/105 242/314/105 260/348/105
f 241/349/106 230/350/106 229/351/106
f 233/352/107 245/286/107 244/293/107
f 259/353/108 246/318/108 245/317/108
f 257/354/109 252/324/109 251/323/109
f 239/311/110 256/355/110 240/312/110
f 253/356/111 231/303/111 230/302/111
f 255/357/112 248/336/112 237/358/112
f 254/295/113 236/327/113 231/326/113
f 249/359/114 260/290/114 242/343/114
f 243/360/115 253/361/115 230/350/115
f 245/286/83 232/362/83 253/287/83
f 251/289/116 246/346/116 260/290/116
f 238/292/85 233/352/85 244/293/85
f 254/295/117 234/331/117 240/296/117
f 239/298/87 252/363/87 258/299/87
f 235/325/96 229/364/96 231/326/96
f 253/328/118 232/304/118 234/306/118
f 238/330/98 240/296/98 234/331/98
f 237/309/119 236/308/119 256/333/119
f 235/335/100 237/358/100 248/336/100
f 250/338/101 252/363/101 239/298/101
f 257/340/120 249/321/120 248/320/120
f 247/342/103 249/359/103 242/343/103
f 250/345/104 244/365/104 246/346/104
f 259/347/121 243/315/121 242/314/121
f 241/349/106 243/360/106 230/350/106
f 233/352/107 232/362/107 245/286/107
f 259/353/122 260/366/122 246/318/122
f 257/354/123 258/367/123 252/324/123
f 239/311/124 255/368/124 256/355/124
f 253/356/125 254/369/125 231/303/125
f 255/357/112 258/370/112 248/336/112
f 254/295/126 256/297/126 236/327/126
f 249/359/127 257/291/127 260/290/127
f 243/360/115 259/371/115 253/361/115
o Cube
v -0.027203 0.000899 0.027203
v -0.027203 0.233497 0.027558
v -0.027203 0.000899 -0.027203
v -0.027203 0.263753 -0.025718
v 0.027203 0.000899 0.027203
v 0.027203 0.233497 0.027558
v 0.027203 0.000899 -0.027203
v 0.027203 0.263753 -0.025718
v -0.027203 0.548755 0.429400
v -0.027203 0.562488 0.370429
v 0.027203 0.548755 0.429400
v 0.027203 0.562488 0.370429
v -0.027203 1.095621 0.429928
v -0.027203 1.066712 0.370724
v 0.027203 1.095621 0.429928
v 0.027203 1.066712 0.370724
v -0.025332 1.697448 -0.067623
v -0.025332 1.656243 -0.113081
v 0.025332 1.697448 -0.067623
v 0.025332 1.656243 -0.113081
vn -1.0000 -0.0000 -0.0000
vn -0.0000 0.0057 -1.0000
vn 1.0000 -0.0000 -0.0000
vn -0.0000 -0.0015 1.0000
vn -0.0000 -1.0000 -0.0000
vn -0.0000 0.7984 -0.6021
vn -0.0000 -0.7868 0.6172
vn -1.0000 0.0018 -0.0016
vn -0.0000 -0.0010 1.0000
vn -0.0000 0.0006 -1.0000
vn -0.0000 0.7409 -0.6716
vn -0.0000 0.6372 0.7707
vn -0.0000 -0.6344 -0.7730
vn 1.0000 0.0022 -0.0011
vn -1.0000 0.0022 -0.0011
vn 1.0000 0.0018 -0.0016
vt 0.278047 0.125411
vt 0.212250 0.140288
vt 0.212386 0.124930
vt 0.267081 0.018192
vt 0.202365 0.031153
vt 0.202451 0.017776
vt 0.215921 0.026109
vt 0.280031 0.042786
vt 0.215570 0.041188
vt 0.258637 0.011372
vt 0.201985 0.023969
vt 0.202130 0.010751
vt 0.250043 0.500000
vt 0.000087 0.749957
vt 0.000087 0.500000
vt 0.388987 0.032354
vt 0.266995 0.031569
vt 0.364813 0.156188
vt 0.508741 0.143266
vt 0.516371 0.159860
vt 0.368999 0.139933
vt 0.371774 0.029445
vt 0.286454 0.140526
vt 0.382573 0.025953
vt 0.258492 0.024590
vt 0.514111 0.030622
vt 0.691065 0.155939
vt 0.679319 0.168668
vt 0.368045 0.012764
vt 0.382718 0.012736
vt 0.515428 0.027414
vt 0.389073 0.018977
vt 0.512961 0.033152
vt 0.749957 0.500000
vt 0.500000 0.749957
vt 0.500000 0.500000
vt 0.515573 0.014196
vt 0.705136 0.029044
vt 0.513047 0.019775
vt 0.700475 0.033899
vt 0.686375 0.025846
vt 0.288760 0.028216
vt 0.250043 0.749957
vt 0.522419 0.013982
vt 0.749957 0.749957
vt 0.705271 0.016736
vt 0.700555 0.021442
vt 0.675248 0.012982
s 0
usemtl texture
f 262/372/128 263/373/128 261/374/128
f 264/375/129 267/376/129 263/377/129
f 267/378/130 266/379/130 265/380/130
f 266/381/131 261/382/131 265/383/131
f 267/384/132 261/385/132 263/386/132
f 264/375/133 272/387/133 268/388/133
f 271/389/130 276/390/130 275/391/130
f 266/379/130 272/392/130 271/389/130
f 262/372/128 270/393/128 264/394/128
f 266/381/134 269/395/134 262/396/134
f 274/397/135 277/398/135 278/399/135
f 269/400/128 274/397/128 270/393/128
f 271/401/136 273/402/136 269/395/136
f 270/403/137 276/404/137 272/387/137
f 278/405/138 279/406/138 280/407/138
f 275/408/139 277/409/139 273/402/139
f 274/410/140 280/411/140 276/404/140
f 276/390/141 279/412/141 275/391/141
f 262/372/128 264/394/128 263/373/128
f 264/375/129 268/388/129 267/376/129
f 267/378/130 268/413/130 266/379/130
f 266/381/131 262/396/131 261/382/131
f 267/384/132 265/414/132 261/385/132
f 264/375/133 270/403/133 272/387/133
f 271/389/130 272/392/130 276/390/130
f 266/379/130 268/413/130 272/392/130
f 262/372/128 269/400/128 270/393/128
f 266/381/134 271/401/134 269/395/134
f 274/397/142 273/415/142 277/398/142
f 269/400/128 273/415/128 274/397/128
f 271/401/136 275/408/136 273/402/136
f 270/403/137 274/410/137 276/404/137
f 278/405/138 277/416/138 279/406/138
f 275/408/139 279/417/139 277/409/139
f 274/410/140 278/418/140 280/411/140
f 276/390/143 280/419/143 279/412/143
o black_box
v -0.022003 1.457900 0.310359
v -0.022003 1.545445 0.238096
v -0.022003 1.429886 0.276421
v -0.022003 1.517431 0.204157
v 0.022003 1.457900 0.310359
v 0.022003 1.545445 0.238096
v 0.022003 1.429886 0.276421
v 0.022003 1.517431 0.204157
vn -1.0000 -0.0000 -0.0000
vn -0.0000 -0.6366 -0.7712
vn 1.0000 -0.0000 -0.0000
vn -0.0000 0.6366 0.7712
vn -0.0000 -0.7712 0.6366
vn -0.0000 0.7712 -0.6366
vt 0.056609 0.254121
vt 0.012873 0.141303
vt 0.056609 0.141303
vt 0.187816 0.254121
vt 0.144080 0.141303
vt 0.187816 0.141303
vt 0.144080 0.254121
vt 0.100345 0.141303
vt 0.100345 0.254121
vt 0.100345 0.097567
vt 0.056609 0.097567
vt 0.056609 0.297856
vt 0.100345 0.297856
vt 0.012873 0.254121
s 0
usemtl texture
f 282/420/144 283/421/144 281/422/144
f 284/423/145 287/424/145 283/425/145
f 288/426/146 285/427/146 287/424/146
f 286/428/147 281/422/147 285/427/147
f 287/429/148 281/422/148 283/430/148
f 284/431/149 286/428/149 288/432/149
f 282/420/144 284/433/144 283/421/144
f 284/423/145 288/426/145 287/424/145
f 288/426/146 286/428/146 285/427/146
f 286/428/147 282/420/147 281/422/147
f 287/429/148 285/427/148 281/422/148
f 284/431/149 282/420/149 286/428/149
o black_box.001
v -0.022003 1.172385 0.566137
v -0.022003 1.217511 0.528314
v -0.022003 1.154232 0.523570
v -0.022003 1.189497 0.494375
v 0.022003 1.172385 0.566137
v 0.022003 1.217511 0.528314
v 0.022003 1.154232 0.523570
v 0.022003 1.189497 0.494375
v -0.022003 1.043041 0.566417
v -0.022003 1.043688 0.522414
v 0.022003 1.043041 0.566417
v 0.022003 1.043688 0.522414
vn -1.0000 -0.0000 -0.0000
vn -0.0000 -0.6377 -0.7703
vn 1.0000 -0.0000 -0.0000
vn -0.0000 0.6424 0.7664
vn -0.0000 0.0022 1.0000
vn -0.0000 0.7712 -0.6366
vn -0.0000 -0.9999 -0.0147
vn -0.0000 0.0105 -0.9999
vt 0.115086 0.076718
vt 0.143284 0.105607
vt 0.115119 0.114176
vt 0.115303 0.323912
vt 0.087281 0.294812
vt 0.115277 0.294787
vt 0.058943 0.105681
vt 0.087090 0.076742
vt 0.087123 0.114201
vt 0.087195 0.196486
vt 0.087331 0.351933
vt 0.087306 0.323937
vt 0.087219 0.224482
vt 0.115191 0.196462
vt 0.115216 0.224458
vt 0.167896 0.177308
vt 0.034457 0.177424
vt 0.013251 0.159145
vt 0.143082 0.076483
vt 0.059095 0.076556
vt 0.115327 0.351909
vt 0.189069 0.158992
s 0
usemtl texture
f 290/434/150 291/435/150 289/436/150
f 292/437/151 295/438/151 291/439/151
f 295/440/152 294/441/152 293/442/152
f 294/441/153 289/436/153 293/442/153
f 289/436/154 299/443/154 293/442/154
f 292/437/155 294/444/155 296/445/155
f 300/446/156 297/447/156 298/448/156
f 295/438/157 298/448/157 291/439/157
f 291/435/150 297/449/150 289/436/150
f 295/440/152 299/450/152 300/451/152
f 290/434/150 292/452/150 291/435/150
f 292/437/151 296/445/151 295/438/151
f 295/440/152 296/453/152 294/441/152
f 294/441/153 290/434/153 289/436/153
f 289/436/154 297/447/154 299/443/154
f 292/437/155 290/454/155 294/444/155
f 300/446/156 299/443/156 297/447/156
f 295/438/157 300/446/157 298/448/157
f 291/435/150 298/455/150 297/449/150
f 295/440/152 293/442/152 299/450/152
o black_box.002
v -0.022003 0.482483 0.566056
v -0.022003 0.432810 0.509597
v -0.022003 0.500905 0.523605
v -0.022003 0.468147 0.483369
v 0.022003 0.482483 0.566056
v 0.022003 0.432810 0.509597
v 0.022003 0.500905 0.523605
v 0.022003 0.468147 0.483369
v -0.022003 0.600935 0.567153
v -0.022003 0.600566 0.523148
v 0.022003 0.600935 0.567153
v 0.022003 0.600566 0.523148
vn 1.0000 -0.0000 -0.0000
vn -0.0000 -0.7755 0.6314
vn -1.0000 -0.0000 -0.0000
vn -0.0000 0.7508 -0.6605
vn -0.0000 0.0093 -1.0000
vn -0.0000 0.5960 0.8030
vn -0.0000 -1.0000 0.0084
vn -0.0000 0.0046 1.0000
vt 0.050325 0.352813
vt 0.033637 0.302462
vt 0.064861 0.303428
vt 0.029437 0.086240
vt 0.066317 0.118092
vt 0.035174 0.122958
vt 0.124485 0.324144
vt 0.085282 0.360725
vt 0.095301 0.303597
vt 0.082203 0.219766
vt 0.055714 0.050231
vt 0.060580 0.081374
vt 0.077337 0.188623
vt 0.051060 0.224632
vt 0.046194 0.193488
vt 0.172845 0.255283
vt 0.190283 0.284403
vt 0.019522 0.339448
vt 0.119085 0.363795
vt 0.024571 0.055097
vt 0.019522 0.230984
s 0
usemtl texture
f 302/456/158 303/457/158 301/458/158
f 304/459/159 307/460/159 303/461/159
f 307/462/160 306/463/160 305/464/160
f 306/463/161 301/458/161 305/464/161
f 301/458/162 311/465/162 305/464/162
f 304/459/163 306/466/163 308/467/163
f 312/468/164 309/469/164 310/470/164
f 307/460/165 310/470/165 303/461/165
f 303/457/158 309/469/158 301/458/158
f 307/462/160 311/471/160 312/472/160
f 302/456/158 304/473/158 303/457/158
f 304/459/159 308/467/159 307/460/159
f 307/462/160 308/474/160 306/463/160
f 306/463/161 302/456/161 301/458/161
f 301/458/162 309/469/162 311/465/162
f 304/459/163 302/475/163 306/466/163
f 312/468/164 311/465/164 309/469/164
f 307/460/165 312/468/165 310/470/165
f 303/457/158 310/476/158 309/469/158
f 307/462/160 305/464/160 311/471/160
o simplified_top_blocks_white.001
v -0.042506 0.279996 0.111575
v -0.042506 0.458665 0.344021
v -0.042506 0.346028 0.058029
v -0.042506 0.525714 0.291755
v 0.042506 0.279996 0.111575
v 0.042506 0.458665 0.344021
v 0.042506 0.346028 0.058029
v 0.042506 0.525714 0.291755
v -0.032475 0.479134 0.354104
v -0.032475 0.530361 0.314171
v 0.032475 0.530361 0.314171
v 0.032475 0.479134 0.354104
v -0.032872 0.321925 0.043574
v -0.032872 0.270859 0.084984
v 0.032872 0.321925 0.043574
v 0.032872 0.270859 0.084984
vn -1.0000 -0.0000 -0.0000
vn -0.0000 0.7928 -0.6095
vn 1.0000 -0.0000 -0.0000
vn -0.0000 -0.7928 0.6094
vn -0.0000 0.5143 -0.8576
vn -0.8985 0.2698 0.3461
vn -0.0000 0.6148 0.7887
vn -0.0000 -0.4419 0.8971
vn -0.0000 0.9792 -0.2030
vn 0.8985 0.2698 0.3461
vn -0.0000 -0.6298 -0.7767
vn -0.9394 -0.2158 -0.2662
vn 0.9394 -0.2158 -0.2662
vn -0.0000 -0.9457 0.3250
vt 0.058671 0.799818
vt 0.005759 0.981939
vt 0.005775 0.798441
vt 0.115064 0.977943
vt 0.060979 0.790381
vt 0.115064 0.790381
vt 0.060979 0.977943
vt 0.006911 0.791783
vt 0.111584 0.982299
vt 0.111584 0.799818
vt 0.108935 0.772500
vt 0.058671 0.982299
vt 0.011958 0.996207
vt 0.875000 0.500000
vt 0.625000 0.750000
vt 0.625000 0.500000
vt 0.064915 0.996501
vt 0.067360 0.992507
vt 0.006894 0.978306
vt 0.054641 0.992526
vt 0.013319 0.992803
vt 0.375000 0.500000
vt 0.125000 0.750000
vt 0.125000 0.500000
vt 0.053122 0.782171
vt 0.012585 0.773746
vt 0.054399 0.772661
vt 0.105588 0.782318
vt 0.067108 0.772500
vt 0.052385 0.996482
vt 0.875000 0.750000
vt 0.105341 0.996501
vt 0.108682 0.992507
vt 0.375000 0.750000
vt 0.012214 0.781106
vt 0.064668 0.782318
s 0
usemtl texture
f 313/477/166 316/478/166 315/479/166
f 316/480/167 319/481/167 315/482/167
f 320/483/168 317/484/168 319/481/168
f 318/485/169 313/477/169 317/486/169
f 319/481/170 325/487/170 315/482/170
f 314/488/171 322/489/171 316/478/171
f 322/490/172 324/491/172 323/492/172
f 318/485/173 321/493/173 314/488/173
f 316/480/174 323/494/174 320/483/174
f 318/495/175 323/496/175 324/497/175
f 327/498/176 326/499/176 325/500/176
f 315/479/177 326/501/177 313/477/177
f 319/481/178 328/502/178 327/503/178
f 313/477/179 328/504/179 317/486/179
f 313/477/166 314/488/166 316/478/166
f 316/480/167 320/483/167 319/481/167
f 320/483/168 318/495/168 317/484/168
f 318/485/169 314/488/169 313/477/169
f 319/481/170 327/505/170 325/487/170
f 314/488/171 321/506/171 322/489/171
f 322/490/172 321/507/172 324/491/172
f 318/485/173 324/508/173 321/493/173
f 316/480/174 322/509/174 323/494/174
f 318/495/175 320/483/175 323/496/175
f 327/498/176 328/510/176 326/499/176
f 315/479/177 325/511/177 326/501/177
f 319/481/178 317/484/178 328/502/178
f 313/477/179 326/512/179 328/504/179
