# Blender 4.2.3 LTS
# www.blender.org
mtllib standard_portal.mtl
o Cube
v -0.179996 0.190423 -2.199357
v -0.200903 -0.000337 -2.070137
v -0.172730 0.302070 -1.709586
v -0.192413 -0.000337 -1.532929
v 0.000325 -0.000337 -2.187943
v 0.000325 0.323836 -1.614103
v 0.000325 -0.000337 -1.418985
v 0.000325 0.167919 -2.298077
v -0.321877 -0.000337 -1.827091
v -0.283528 0.245877 -1.956090
v -0.179996 0.531155 -2.378037
v -0.172730 0.623100 -1.884888
v 0.000325 0.641025 -1.788746
v 0.000325 0.512622 -2.477438
v -0.283528 0.576824 -2.133092
v -0.179996 1.008954 -2.533806
v -0.172730 1.014007 -2.018700
v 0.000325 1.014992 -1.921188
v 0.000325 1.007936 -2.634623
v -0.283528 1.011464 -2.285371
v -0.172626 1.580072 -2.486463
v -0.165792 1.437877 -2.019182
v 0.000325 1.410155 -1.930994
v 0.000325 1.608734 -2.577640
v -0.270010 1.509444 -2.261782
v -0.154286 2.186186 -2.283790
v -0.147452 1.906808 -1.887893
v 0.000325 1.852342 -1.810711
v 0.000325 2.242499 -2.363588
v -0.251670 2.047421 -2.087150
v -0.134659 2.666374 -1.860358
v -0.127825 2.341439 -1.584877
v 0.000325 2.268953 -1.521136
v 0.000325 2.741317 -1.926259
v -0.232043 2.512821 -1.725804
v -0.122851 2.984011 -1.442443
v -0.122108 2.604030 -1.170973
v 0.000325 2.522135 -1.194212
v 0.000325 3.068682 -1.488767
v -0.215170 2.815454 -1.354690
v -0.109549 3.121906 -1.099354
v -0.103071 2.730521 -0.957295
v 0.000325 2.640170 -0.928983
v 0.000325 3.215319 -1.128626
v -0.201868 2.940985 -1.013108
v -0.105660 3.252248 -0.777629
v -0.099588 2.849910 -0.641197
v 0.000325 2.745532 -0.634620
v 0.000325 3.340190 -0.806178
v -0.192185 3.035895 -0.710442
v -0.097658 3.294264 -0.679930
v -0.091586 2.886164 -0.534661
v 0.000325 2.804420 -0.498066
v 0.000325 3.382975 -0.712622
v -0.184183 3.068184 -0.600123
v -0.092564 3.337692 -0.619781
v -0.086641 2.948046 -0.442095
v 0.000325 2.872241 -0.398676
v 0.000325 3.417574 -0.662998
v -0.176961 3.114734 -0.498800
v -0.086027 3.394139 -0.565771
v -0.080104 3.080743 -0.337246
v 0.000325 3.014650 -0.306497
v 0.000325 3.464551 -0.615512
v -0.170424 3.178548 -0.416586
v -0.085118 3.447639 -0.515128
v -0.079196 3.202819 -0.300929
v 0.000325 3.172923 -0.257310
v 0.000325 3.510916 -0.565094
v -0.169516 3.253766 -0.360915
v -0.086871 3.684152 -0.334385
v -0.082074 3.468113 -0.246030
v 0.000325 3.469168 -0.192939
v 0.000325 3.727170 -0.374671
v -0.155218 3.592153 -0.243524
v 0.000325 3.592153 -0.185674
v -0.136941 3.764769 -0.241030
v -0.071284 3.786935 -0.293493
v 0.000325 3.815438 -0.316037
v 0.000325 3.870665 -0.198636
v -0.099115 3.921289 -0.238836
v -0.038703 3.914435 -0.264647
v 0.000325 3.903239 -0.272009
v 0.000325 3.972420 -0.238836
v 0.179996 0.190423 -2.199357
v 0.200903 -0.000337 -2.070137
v 0.172730 0.302070 -1.709586
v 0.192413 -0.000337 -1.532929
v -0.000325 -0.000337 -2.187943
v -0.000325 0.323836 -1.614103
v -0.000325 -0.000337 -1.418985
v -0.000325 0.167919 -2.298077
v 0.321877 -0.000337 -1.827091
v 0.283528 0.245877 -1.956090
v 0.179996 0.531155 -2.378037
v 0.172730 0.623100 -1.884888
v -0.000325 0.641025 -1.788746
v -0.000325 0.512622 -2.477438
v 0.283528 0.576824 -2.133092
v 0.179996 1.008954 -2.533806
v 0.172730 1.014007 -2.018700
v -0.000325 1.014992 -1.921188
v -0.000325 1.007936 -2.634623
v 0.283528 1.011464 -2.285371
v 0.172626 1.580072 -2.486463
v 0.165792 1.437877 -2.019182
v -0.000325 1.410155 -1.930994
v -0.000325 1.608734 -2.577640
v 0.270010 1.509444 -2.261782
v 0.154286 2.186186 -2.283790
v 0.147452 1.906808 -1.887893
v -0.000325 1.852342 -1.810711
v -0.000325 2.242499 -2.363588
v 0.251670 2.047421 -2.087150
v 0.134659 2.666374 -1.860358
v 0.127825 2.341439 -1.584877
v -0.000325 2.268953 -1.521136
v -0.000325 2.741317 -1.926259
v 0.232043 2.512821 -1.725804
v 0.122851 2.984011 -1.442443
v 0.122108 2.604030 -1.170973
v -0.000325 2.522135 -1.194212
v -0.000325 3.068682 -1.488767
v 0.215170 2.815454 -1.354690
v 0.109549 3.121906 -1.099354
v 0.103071 2.730521 -0.957295
v -0.000325 2.640170 -0.928983
v -0.000325 3.215319 -1.128626
v 0.201868 2.940985 -1.013108
v 0.105660 3.252248 -0.777629
v 0.099588 2.849910 -0.641197
v -0.000325 2.745532 -0.634620
v -0.000325 3.340190 -0.806178
v 0.192185 3.035895 -0.710442
v 0.097658 3.294264 -0.679930
v 0.091586 2.886164 -0.534661
v -0.000325 2.804420 -0.498066
v -0.000325 3.382975 -0.712622
v 0.184183 3.068184 -0.600123
v 0.092564 3.337692 -0.619781
v 0.086641 2.948046 -0.442095
v -0.000325 2.872241 -0.398676
v -0.000325 3.417574 -0.662998
v 0.176961 3.114734 -0.498800
v 0.086027 3.394139 -0.565771
v 0.080104 3.080743 -0.337246
v -0.000325 3.014650 -0.306497
v -0.000325 3.464551 -0.615512
v 0.170424 3.178548 -0.416586
v 0.085118 3.447639 -0.515128
v 0.079196 3.202819 -0.300929
v -0.000325 3.172923 -0.257310
v -0.000325 3.510916 -0.565094
v 0.169516 3.253766 -0.360915
v 0.086871 3.684152 -0.334385
v 0.082074 3.468113 -0.246030
v -0.000325 3.469168 -0.192939
v -0.000325 3.727170 -0.374671
v 0.155218 3.592153 -0.243524
v -0.000325 3.592153 -0.185674
v 0.136941 3.764769 -0.241030
v 0.071284 3.786935 -0.293493
v -0.000325 3.815438 -0.316037
v -0.000325 3.870665 -0.198636
v 0.099115 3.921289 -0.238836
v 0.038703 3.914435 -0.264647
v -0.000325 3.903239 -0.272009
v -0.000325 3.972420 -0.238836
v -0.179996 0.190423 2.199357
v -0.200903 -0.000337 2.070137
v -0.172730 0.302070 1.709586
v -0.192413 -0.000337 1.532929
v 0.000325 -0.000337 2.187943
v 0.000325 0.323836 1.614103
v 0.000325 -0.000337 1.418985
v 0.000325 0.167919 2.298077
v -0.321877 -0.000337 1.827091
v -0.283528 0.245877 1.956090
v -0.179996 0.531155 2.378037
v -0.172730 0.623100 1.884888
v 0.000325 0.641025 1.788746
v 0.000325 0.512622 2.477438
v -0.283528 0.576824 2.133092
v -0.179996 1.008954 2.533806
v -0.172730 1.014007 2.018700
v 0.000325 1.014992 1.921188
v 0.000325 1.007936 2.634623
v -0.283528 1.011464 2.285371
v -0.172626 1.580072 2.486463
v -0.165792 1.437877 2.019182
v 0.000325 1.410155 1.930994
v 0.000325 1.608734 2.577640
v -0.270010 1.509444 2.261782
v -0.154286 2.186186 2.283790
v -0.147452 1.906808 1.887893
v 0.000325 1.852342 1.810711
v 0.000325 2.242499 2.363588
v -0.251670 2.047421 2.087150
v -0.134659 2.666374 1.860358
v -0.127825 2.341439 1.584877
v 0.000325 2.268953 1.521136
v 0.000325 2.741317 1.926259
v -0.232043 2.512821 1.725804
v -0.122851 2.984011 1.442443
v -0.122108 2.604030 1.170973
v 0.000325 2.522135 1.194212
v 0.000325 3.068682 1.488767
v -0.215170 2.815454 1.354690
v -0.109549 3.121906 1.099354
v -0.103071 2.730521 0.957295
v 0.000325 2.640170 0.928983
v 0.000325 3.215319 1.128626
v -0.201868 2.940985 1.013108
v -0.105660 3.252248 0.777629
v -0.099588 2.849910 0.641197
v 0.000325 2.745532 0.634620
v 0.000325 3.340190 0.806178
v -0.192185 3.035895 0.710442
v -0.097658 3.294264 0.679930
v -0.091586 2.886164 0.534661
v 0.000325 2.804420 0.498066
v 0.000325 3.382975 0.712622
v -0.184183 3.068184 0.600123
v -0.092564 3.337692 0.619781
v -0.086641 2.948046 0.442095
v 0.000325 2.872241 0.398676
v 0.000325 3.417574 0.662998
v -0.176961 3.114734 0.498800
v -0.086027 3.394139 0.565771
v -0.080104 3.080743 0.337246
v 0.000325 3.014650 0.306497
v 0.000325 3.464551 0.615512
v -0.170424 3.178548 0.416586
v -0.085118 3.447639 0.515128
v -0.079196 3.202819 0.300929
v 0.000325 3.172923 0.257310
v 0.000325 3.510916 0.565094
v -0.169516 3.253766 0.360915
v -0.086871 3.684152 0.334385
v -0.082074 3.468113 0.246030
v 0.000325 3.469168 0.192939
v 0.000325 3.727170 0.374671
v -0.155218 3.592153 0.243524
v 0.000325 3.592153 0.185674
v -0.136941 3.764769 0.241030
v -0.071284 3.786935 0.293493
v 0.000325 3.815438 0.316037
v 0.000325 3.870665 0.198636
v -0.099115 3.921289 0.238836
v -0.038703 3.914435 0.264647
v 0.000325 3.903239 0.272009
v 0.000325 3.972420 0.238836
v 0.179996 0.190423 2.199357
v 0.200903 -0.000337 2.070137
v 0.172730 0.302070 1.709586
v 0.192413 -0.000337 1.532929
v -0.000325 -0.000337 2.187943
v -0.000325 0.323836 1.614103
v -0.000325 -0.000337 1.418985
v -0.000325 0.167919 2.298077
v 0.321877 -0.000337 1.827091
v 0.283528 0.245877 1.956090
v 0.179996 0.531155 2.378037
v 0.172730 0.623100 1.884888
v -0.000325 0.641025 1.788746
v -0.000325 0.512622 2.477438
v 0.283528 0.576824 2.133092
v 0.179996 1.008954 2.533806
v 0.172730 1.014007 2.018700
v -0.000325 1.014992 1.921188
v -0.000325 1.007936 2.634623
v 0.283528 1.011464 2.285371
v 0.172626 1.580072 2.486463
v 0.165792 1.437877 2.019182
v -0.000325 1.410155 1.930994
v -0.000325 1.608734 2.577640
v 0.270010 1.509444 2.261782
v 0.154286 2.186186 2.283790
v 0.147452 1.906808 1.887893
v -0.000325 1.852342 1.810711
v -0.000325 2.242499 2.363588
v 0.251670 2.047421 2.087150
v 0.134659 2.666374 1.860358
v 0.127825 2.341439 1.584877
v -0.000325 2.268953 1.521136
v -0.000325 2.741317 1.926259
v 0.232043 2.512821 1.725804
v 0.122851 2.984011 1.442443
v 0.122108 2.604030 1.170973
v -0.000325 2.522135 1.194212
v -0.000325 3.068682 1.488767
v 0.215170 2.815454 1.354690
v 0.109549 3.121906 1.099354
v 0.103071 2.730521 0.957295
v -0.000325 2.640170 0.928983
v -0.000325 3.215319 1.128626
v 0.201868 2.940985 1.013108
v 0.105660 3.252248 0.777629
v 0.099588 2.849910 0.641197
v -0.000325 2.745532 0.634620
v -0.000325 3.340190 0.806178
v 0.192185 3.035895 0.710442
v 0.097658 3.294264 0.679930
v 0.091586 2.886164 0.534661
v -0.000325 2.804420 0.498066
v -0.000325 3.382975 0.712622
v 0.184183 3.068184 0.600123
v 0.092564 3.337692 0.619781
v 0.086641 2.948046 0.442095
v -0.000325 2.872241 0.398676
v -0.000325 3.417574 0.662998
v 0.176961 3.114734 0.498800
v 0.086027 3.394139 0.565771
v 0.080104 3.080743 0.337246
v -0.000325 3.014650 0.306497
v -0.000325 3.464551 0.615512
v 0.170424 3.178548 0.416586
v 0.085118 3.447639 0.515128
v 0.079196 3.202819 0.300929
v -0.000325 3.172923 0.257310
v -0.000325 3.510916 0.565094
v 0.169516 3.253766 0.360915
v 0.086871 3.684152 0.334385
v 0.082074 3.468113 0.246030
v -0.000325 3.469168 0.192939
v -0.000325 3.727170 0.374671
v 0.155218 3.592153 0.243524
v -0.000325 3.592153 0.185674
v 0.136941 3.764769 0.241030
v 0.071284 3.786935 0.293493
v -0.000325 3.815438 0.316037
v -0.000325 3.870665 0.198636
v 0.099115 3.921289 0.238836
v 0.038703 3.914435 0.264647
v -0.000325 3.903239 0.272009
v -0.000325 3.972420 0.238836
vn -0.4727 -0.4068 -0.7817
vn -0.4519 0.4600 0.7643
vn -0.8913 -0.0936 -0.4436
vn -0.4465 -0.4678 -0.7628
vn -0.8779 0.2828 0.3864
vn -0.4715 -0.2668 -0.8406
vn -0.9157 0.1329 0.3792
vn -0.9171 -0.1852 -0.3531
vn -0.4733 0.4222 0.7732
vn -0.9084 0.1972 0.3687
vn -0.4717 0.2856 0.8342
vn -0.9164 -0.1241 -0.3806
vn -0.5180 0.2737 -0.8104
vn -0.9090 -0.1004 0.4046
vn -0.9216 0.0439 -0.3857
vn -0.9181 0.0062 0.3962
vn -0.4755 0.0831 -0.8758
vn -0.4678 0.0087 0.8838
vn -0.5128 -0.2128 0.8317
vn -0.9237 0.1464 -0.3541
vn -0.6129 0.6326 -0.4734
vn -0.9047 -0.3091 0.2932
vn -0.9022 0.3054 -0.3045
vn -0.8979 -0.2457 0.3652
vn -0.5912 0.5317 -0.6064
vn -0.5877 -0.4447 0.6759
vn -0.4182 -0.7644 0.4907
vn -0.8981 0.3619 -0.2497
vn -0.6568 0.7032 -0.2723
vn -0.9062 -0.3943 0.1526
vn -0.8969 0.4212 -0.1345
vn -0.9458 -0.2913 0.1439
vn -0.6639 0.6926 -0.2820
vn -0.6587 -0.6203 0.4259
vn -0.9395 0.3358 -0.0674
vn -0.7062 -0.6598 0.2570
vn -0.9077 0.3926 -0.1481
vn -0.6968 0.5884 -0.4102
vn -0.8849 -0.3961 0.2451
vn -0.9057 -0.3846 0.1783
vn -0.6933 0.6553 -0.2997
vn -0.6978 -0.6605 0.2772
vn -0.9517 0.2625 -0.1591
vn -0.7064 -0.5704 0.4191
vn -0.9486 0.2893 -0.1285
vn -0.5343 -0.2374 0.8113
vn -0.6853 0.5361 -0.4930
vn -0.8120 -0.4280 0.3968
vn -0.7017 0.5065 -0.5011
vn -0.6230 -0.4658 0.6284
vn -0.4412 -0.2774 0.8534
vn -0.8819 0.2821 -0.3777
vn -0.9460 0.2311 -0.2272
vn -0.6559 -0.4439 0.6105
vn -0.5405 -0.0496 0.8399
vn -0.5582 0.5483 -0.6227
vn -0.5315 -0.1772 0.8283
vn -0.6534 0.3633 -0.6642
vn -0.3485 0.0234 0.9370
vn -0.4345 0.4984 -0.7502
vn -0.0460 0.4319 -0.9007
vn -0.3479 0.2906 -0.8914
vn -0.3431 0.0698 0.9367
vn -0.0400 0.4479 -0.8932
vn 0.4771 -0.4082 -0.7783
vn 0.4519 0.4600 0.7643
vn 0.8913 -0.0936 -0.4436
vn 0.4465 -0.4678 -0.7628
vn 0.8779 0.2828 0.3864
vn 0.4859 -0.2709 -0.8310
vn 0.9141 0.1313 0.3836
vn 0.9186 -0.1864 -0.3485
vn 0.4779 0.4237 0.7695
vn 0.9101 0.1986 0.3638
vn 0.4874 0.2915 0.8231
vn 0.9218 -0.1281 -0.3658
vn 0.4835 0.2907 -0.8257
vn 0.9238 -0.0693 0.3764
vn 0.9220 0.0433 -0.3847
vn 0.9234 0.0156 0.3835
vn 0.4862 0.0784 -0.8703
vn 0.4909 0.0216 0.8710
vn 0.4860 -0.2294 0.8433
vn 0.9236 0.1465 -0.3543
vn 0.5930 0.6490 -0.4765
vn 0.9047 -0.3091 0.2932
vn 0.9259 0.2552 -0.2784
vn 0.9189 -0.1968 0.3418
vn 0.5310 0.5726 -0.6247
vn 0.5386 -0.4809 0.6919
vn 0.6009 -0.6320 0.4894
vn 0.9016 0.3544 -0.2480
vn 0.6643 0.6956 -0.2738
vn 0.9094 -0.3856 0.1557
vn 0.8969 0.4212 -0.1345
vn 0.9458 -0.2913 0.1439
vn 0.6127 0.7413 -0.2742
vn 0.4710 -0.8059 0.3587
vn 0.9318 0.3609 -0.0380
vn 0.6751 -0.6946 0.2486
vn 0.9077 0.3926 -0.1481
vn 0.6865 0.6159 -0.3865
vn 0.8922 -0.3521 0.2830
vn 0.9057 -0.3846 0.1783
vn 0.6573 0.7104 -0.2517
vn 0.7019 -0.6541 0.2821
vn 0.9488 0.2815 -0.1431
vn 0.6922 -0.5962 0.4068
vn 0.9402 0.3300 -0.0846
vn 0.5201 -0.2535 0.8156
vn 0.7004 0.4969 -0.5124
vn 0.8434 -0.3069 0.4410
vn 0.6894 0.5409 -0.4819
vn 0.6660 -0.4054 0.6262
vn 0.6091 -0.1670 0.7753
vn 0.9347 0.1511 -0.3216
vn 0.9477 0.1973 -0.2511
vn 0.7530 -0.1825 0.6322
vn 0.3401 -0.2190 0.9145
vn 0.6743 0.4452 -0.5892
vn 0.5244 -0.1808 0.8321
vn 0.8400 0.0967 -0.5340
vn 0.3485 0.0234 0.9370
vn 0.5360 0.3810 -0.7533
vn 0.0460 0.4319 -0.9007
vn 0.6493 0.1673 -0.7419
vn 0.3431 0.0698 0.9367
vn 0.3923 0.2972 -0.8705
vn -0.4771 -0.4082 0.7783
vn -0.4519 0.4600 -0.7643
vn -0.8913 -0.0936 0.4436
vn -0.4465 -0.4678 0.7628
vn -0.8779 0.2828 -0.3864
vn -0.4859 -0.2709 0.8310
vn -0.9141 0.1313 -0.3836
vn -0.9186 -0.1864 0.3485
vn -0.4779 0.4237 -0.7695
vn -0.9101 0.1986 -0.3638
vn -0.4874 0.2915 -0.8231
vn -0.9218 -0.1281 0.3658
vn -0.4835 0.2907 0.8257
vn -0.9238 -0.0693 -0.3764
vn -0.9220 0.0433 0.3847
vn -0.9234 0.0156 -0.3835
vn -0.4862 0.0784 0.8703
vn -0.4909 0.0216 -0.8710
vn -0.4860 -0.2294 -0.8433
vn -0.9236 0.1465 0.3543
vn -0.5930 0.6490 0.4765
vn -0.9047 -0.3091 -0.2932
vn -0.9259 0.2552 0.2784
vn -0.9189 -0.1968 -0.3418
vn -0.5310 0.5726 0.6247
vn -0.5386 -0.4809 -0.6919
vn -0.6009 -0.6320 -0.4894
vn -0.9016 0.3544 0.2480
vn -0.6643 0.6956 0.2738
vn -0.9094 -0.3856 -0.1557
vn -0.8969 0.4212 0.1345
vn -0.9458 -0.2913 -0.1439
vn -0.6127 0.7413 0.2742
vn -0.4710 -0.8059 -0.3587
vn -0.9318 0.3609 0.0380
vn -0.6751 -0.6946 -0.2486
vn -0.9077 0.3926 0.1481
vn -0.6865 0.6159 0.3865
vn -0.8922 -0.3521 -0.2830
vn -0.9057 -0.3846 -0.1783
vn -0.6573 0.7104 0.2517
vn -0.7019 -0.6541 -0.2821
vn -0.9488 0.2815 0.1431
vn -0.6922 -0.5962 -0.4068
vn -0.9402 0.3300 0.0846
vn -0.5201 -0.2535 -0.8156
vn -0.7004 0.4969 0.5124
vn -0.8434 -0.3069 -0.4410
vn -0.6894 0.5409 0.4819
vn -0.6660 -0.4054 -0.6262
vn -0.6091 -0.1670 -0.7753
vn -0.9347 0.1511 0.3216
vn -0.9477 0.1973 0.2511
vn -0.7530 -0.1825 -0.6322
vn -0.3401 -0.2190 -0.9145
vn -0.6743 0.4452 0.5892
vn -0.5244 -0.1808 -0.8321
vn -0.8400 0.0967 0.5340
vn -0.3485 0.0234 -0.9370
vn -0.5360 0.3810 0.7533
vn -0.0460 0.4319 0.9007
vn -0.6493 0.1673 0.7419
vn -0.3431 0.0698 -0.9367
vn -0.3923 0.2972 0.8705
vn 0.4727 -0.4068 0.7817
vn 0.4519 0.4600 -0.7643
vn 0.8913 -0.0936 0.4436
vn 0.4465 -0.4678 0.7628
vn 0.8779 0.2828 -0.3864
vn 0.4715 -0.2668 0.8406
vn 0.9157 0.1329 -0.3792
vn 0.9171 -0.1852 0.3531
vn 0.4733 0.4222 -0.7732
vn 0.9084 0.1972 -0.3687
vn 0.4717 0.2856 -0.8342
vn 0.9164 -0.1241 0.3806
vn 0.5180 0.2737 0.8104
vn 0.9090 -0.1004 -0.4046
vn 0.9216 0.0439 0.3857
vn 0.9181 0.0062 -0.3962
vn 0.4755 0.0831 0.8758
vn 0.4678 0.0087 -0.8838
vn 0.5128 -0.2128 -0.8317
vn 0.9237 0.1464 0.3541
vn 0.6129 0.6326 0.4734
vn 0.9047 -0.3091 -0.2932
vn 0.9022 0.3054 0.3045
vn 0.8979 -0.2457 -0.3652
vn 0.5912 0.5317 0.6064
vn 0.5877 -0.4447 -0.6759
vn 0.4182 -0.7644 -0.4907
vn 0.8981 0.3619 0.2497
vn 0.6568 0.7032 0.2723
vn 0.9062 -0.3943 -0.1526
vn 0.8969 0.4212 0.1345
vn 0.9458 -0.2913 -0.1439
vn 0.6639 0.6926 0.2820
vn 0.6587 -0.6203 -0.4259
vn 0.9395 0.3358 0.0674
vn 0.7062 -0.6598 -0.2570
vn 0.9077 0.3926 0.1481
vn 0.6968 0.5884 0.4102
vn 0.8849 -0.3961 -0.2451
vn 0.9057 -0.3846 -0.1783
vn 0.6933 0.6553 0.2997
vn 0.6978 -0.6605 -0.2772
vn 0.9517 0.2625 0.1591
vn 0.7064 -0.5704 -0.4191
vn 0.9486 0.2893 0.1285
vn 0.5343 -0.2374 -0.8113
vn 0.6853 0.5361 0.4930
vn 0.8120 -0.4280 -0.3968
vn 0.7017 0.5065 0.5011
vn 0.6230 -0.4658 -0.6284
vn 0.4412 -0.2774 -0.8534
vn 0.8819 0.2821 0.3777
vn 0.9460 0.2311 0.2272
vn 0.6559 -0.4439 -0.6105
vn 0.5405 -0.0496 -0.8399
vn 0.5582 0.5483 0.6227
vn 0.5315 -0.1772 -0.8283
vn 0.6534 0.3633 0.6642
vn 0.3485 0.0234 -0.9370
vn 0.4345 0.4984 0.7502
vn 0.0460 0.4319 0.9007
vn 0.3479 0.2906 0.8914
vn 0.3431 0.0698 -0.9367
vn 0.0400 0.4479 0.8932
vn -0.4771 -0.4082 -0.7783
vn -0.4714 0.4675 0.7478
vn -0.9220 -0.1427 -0.3599
vn -0.4658 -0.4846 -0.7404
vn -0.8913 0.3115 0.3296
vn -0.4859 -0.2709 -0.8310
vn -0.9141 0.1313 0.3836
vn -0.9186 -0.1864 -0.3485
vn -0.4779 0.4237 0.7695
vn -0.9101 0.1986 0.3638
vn -0.4874 0.2915 0.8231
vn -0.9218 -0.1281 -0.3658
vn -0.4835 0.2907 -0.8257
vn -0.9238 -0.0693 0.3764
vn -0.9220 0.0433 -0.3847
vn -0.9234 0.0156 0.3835
vn -0.4862 0.0784 -0.8703
vn -0.4909 0.0216 0.8710
vn -0.4860 -0.2294 0.8433
vn -0.9236 0.1465 -0.3543
vn -0.5930 0.6490 -0.4765
vn -0.9484 -0.2618 0.1792
vn -0.9259 0.2552 -0.2784
vn -0.9189 -0.1968 0.3418
vn -0.5310 0.5726 -0.6247
vn -0.5386 -0.4809 0.6919
vn -0.6009 -0.6320 0.4894
vn -0.9016 0.3544 -0.2480
vn -0.6643 0.6956 -0.2738
vn -0.9094 -0.3856 0.1557
vn -0.9059 0.4077 -0.1145
vn -0.8948 -0.3448 0.2838
vn -0.6127 0.7413 -0.2742
vn -0.4710 -0.8059 0.3587
vn -0.9318 0.3609 -0.0380
vn -0.6751 -0.6946 0.2486
vn -0.9338 0.3488 -0.0795
vn -0.6865 0.6159 -0.3865
vn -0.8922 -0.3521 0.2830
vn -0.9005 -0.3865 0.1992
vn -0.6573 0.7104 -0.2517
vn -0.7019 -0.6541 0.2821
vn -0.9488 0.2815 -0.1431
vn -0.6922 -0.5962 0.4068
vn -0.9402 0.3300 -0.0846
vn -0.5201 -0.2535 0.8156
vn -0.7004 0.4969 -0.5124
vn -0.8434 -0.3069 0.4410
vn -0.6894 0.5409 -0.4819
vn -0.6660 -0.4054 0.6262
vn -0.6091 -0.1670 0.7753
vn -0.9347 0.1511 -0.3216
vn -0.9477 0.1973 -0.2511
vn -0.7530 -0.1825 0.6322
vn -0.3401 -0.2190 0.9145
vn -0.6743 0.4452 -0.5892
vn -0.5244 -0.1808 0.8321
vn -0.8400 0.0967 -0.5340
vn -0.3256 0.0440 0.9445
vn -0.5360 0.3810 -0.7533
vn -0.2779 0.5405 -0.7941
vn -0.6493 0.1673 -0.7419
vn -0.1856 0.3610 0.9139
vn -0.3923 0.2972 -0.8705
vn 0.4727 -0.4068 -0.7817
vn 0.4714 0.4675 0.7478
vn 0.9220 -0.1427 -0.3599
vn 0.4658 -0.4846 -0.7404
vn 0.8913 0.3115 0.3296
vn 0.4715 -0.2668 -0.8406
vn 0.9157 0.1329 0.3792
vn 0.9171 -0.1852 -0.3531
vn 0.4733 0.4222 0.7732
vn 0.9084 0.1972 0.3687
vn 0.4717 0.2856 0.8342
vn 0.9164 -0.1241 -0.3806
vn 0.5180 0.2737 -0.8104
vn 0.9090 -0.1004 0.4046
vn 0.9216 0.0439 -0.3857
vn 0.9181 0.0062 0.3962
vn 0.4755 0.0831 -0.8758
vn 0.4678 0.0087 0.8838
vn 0.5128 -0.2128 0.8317
vn 0.9237 0.1464 -0.3541
vn 0.6129 0.6326 -0.4734
vn 0.9484 -0.2618 0.1792
vn 0.9022 0.3054 -0.3045
vn 0.8979 -0.2457 0.3652
vn 0.5912 0.5317 -0.6064
vn 0.5877 -0.4447 0.6759
vn 0.4182 -0.7644 0.4907
vn 0.8981 0.3619 -0.2497
vn 0.6568 0.7032 -0.2723
vn 0.9062 -0.3943 0.1526
vn 0.9059 0.4077 -0.1145
vn 0.8948 -0.3448 0.2838
vn 0.6639 0.6926 -0.2820
vn 0.6587 -0.6203 0.4259
vn 0.9395 0.3358 -0.0674
vn 0.7062 -0.6598 0.2570
vn 0.9338 0.3488 -0.0795
vn 0.6968 0.5884 -0.4102
vn 0.8849 -0.3961 0.2451
vn 0.9005 -0.3865 0.1992
vn 0.6933 0.6553 -0.2997
vn 0.6978 -0.6605 0.2772
vn 0.9517 0.2625 -0.1591
vn 0.7064 -0.5704 0.4191
vn 0.9486 0.2893 -0.1285
vn 0.5343 -0.2374 0.8113
vn 0.6853 0.5361 -0.4930
vn 0.8120 -0.4280 0.3968
vn 0.7017 0.5065 -0.5011
vn 0.6230 -0.4658 0.6284
vn 0.4412 -0.2774 0.8534
vn 0.8819 0.2821 -0.3777
vn 0.9460 0.2311 -0.2272
vn 0.6559 -0.4439 0.6105
vn 0.5405 -0.0496 0.8399
vn 0.5582 0.5483 -0.6227
vn 0.5315 -0.1772 0.8283
vn 0.6534 0.3633 -0.6642
vn 0.3256 0.0440 0.9445
vn 0.4345 0.4984 -0.7502
vn 0.2779 0.5405 -0.7941
vn 0.3479 0.2906 -0.8914
vn 0.1856 0.3610 0.9139
vn 0.0400 0.4479 -0.8932
vn -0.4727 -0.4068 0.7817
vn -0.4714 0.4675 -0.7478
vn -0.9220 -0.1427 0.3599
vn -0.4658 -0.4846 0.7404
vn -0.8913 0.3115 -0.3296
vn -0.4715 -0.2668 0.8406
vn -0.9157 0.1329 -0.3792
vn -0.9171 -0.1852 0.3531
vn -0.4733 0.4222 -0.7732
vn -0.9084 0.1972 -0.3687
vn -0.4717 0.2856 -0.8342
vn -0.9164 -0.1241 0.3806
vn -0.5180 0.2737 0.8104
vn -0.9090 -0.1004 -0.4046
vn -0.9216 0.0439 0.3857
vn -0.9181 0.0062 -0.3962
vn -0.4755 0.0831 0.8758
vn -0.4678 0.0087 -0.8838
vn -0.5128 -0.2128 -0.8317
vn -0.9237 0.1464 0.3541
vn -0.6129 0.6326 0.4734
vn -0.9484 -0.2618 -0.1792
vn -0.9022 0.3054 0.3045
vn -0.8979 -0.2457 -0.3652
vn -0.5912 0.5317 0.6064
vn -0.5877 -0.4447 -0.6759
vn -0.4182 -0.7644 -0.4907
vn -0.8981 0.3619 0.2497
vn -0.6568 0.7032 0.2723
vn -0.9062 -0.3943 -0.1526
vn -0.9059 0.4077 0.1145
vn -0.8948 -0.3448 -0.2838
vn -0.6639 0.6926 0.2820
vn -0.6587 -0.6203 -0.4259
vn -0.9395 0.3358 0.0674
vn -0.7062 -0.6598 -0.2570
vn -0.9338 0.3488 0.0795
vn -0.6968 0.5884 0.4102
vn -0.8849 -0.3961 -0.2451
vn -0.9005 -0.3865 -0.1992
vn -0.6933 0.6553 0.2997
vn -0.6978 -0.6605 -0.2772
vn -0.9517 0.2625 0.1591
vn -0.7064 -0.5704 -0.4191
vn -0.9486 0.2893 0.1285
vn -0.5343 -0.2374 -0.8113
vn -0.6853 0.5361 0.4930
vn -0.8120 -0.4280 -0.3968
vn -0.7017 0.5065 0.5011
vn -0.6230 -0.4658 -0.6284
vn -0.4412 -0.2774 -0.8534
vn -0.8819 0.2821 0.3777
vn -0.9460 0.2311 0.2272
vn -0.6559 -0.4439 -0.6105
vn -0.5405 -0.0496 -0.8399
vn -0.5582 0.5483 0.6227
vn -0.5315 -0.1772 -0.8283
vn -0.6534 0.3633 0.6642
vn -0.3256 0.0440 -0.9445
vn -0.4345 0.4984 0.7502
vn -0.2779 0.5405 0.7941
vn -0.3479 0.2906 0.8914
vn -0.1856 0.3610 -0.9139
vn -0.0400 0.4479 0.8932
vn 0.4771 -0.4082 0.7783
vn 0.4714 0.4675 -0.7478
vn 0.9220 -0.1427 0.3599
vn 0.4658 -0.4846 0.7404
vn 0.8913 0.3115 -0.3296
vn 0.4859 -0.2709 0.8310
vn 0.9141 0.1313 -0.3836
vn 0.9186 -0.1864 0.3485
vn 0.4779 0.4237 -0.7695
vn 0.9101 0.1986 -0.3638
vn 0.4874 0.2915 -0.8231
vn 0.9218 -0.1281 0.3658
vn 0.4835 0.2907 0.8257
vn 0.9238 -0.0693 -0.3764
vn 0.9220 0.0433 0.3847
vn 0.9234 0.0156 -0.3835
vn 0.4862 0.0784 0.8703
vn 0.4909 0.0216 -0.8710
vn 0.4860 -0.2294 -0.8433
vn 0.9236 0.1465 0.3543
vn 0.5930 0.6490 0.4765
vn 0.9484 -0.2618 -0.1792
vn 0.9259 0.2552 0.2784
vn 0.9189 -0.1968 -0.3418
vn 0.5310 0.5726 0.6247
vn 0.5386 -0.4809 -0.6919
vn 0.6009 -0.6320 -0.4894
vn 0.9016 0.3544 0.2480
vn 0.6643 0.6956 0.2738
vn 0.9094 -0.3856 -0.1557
vn 0.9059 0.4077 0.1145
vn 0.8948 -0.3448 -0.2838
vn 0.6127 0.7413 0.2742
vn 0.4710 -0.8059 -0.3587
vn 0.9318 0.3609 0.0380
vn 0.6751 -0.6946 -0.2486
vn 0.9338 0.3488 0.0795
vn 0.6865 0.6159 0.3865
vn 0.8922 -0.3521 -0.2830
vn 0.9005 -0.3865 -0.1992
vn 0.6573 0.7104 0.2517
vn 0.7019 -0.6541 -0.2821
vn 0.9488 0.2815 0.1431
vn 0.6922 -0.5962 -0.4068
vn 0.9402 0.3300 0.0846
vn 0.5201 -0.2535 -0.8156
vn 0.7004 0.4969 0.5124
vn 0.8434 -0.3069 -0.4410
vn 0.6894 0.5409 0.4819
vn 0.6660 -0.4054 -0.6262
vn 0.6091 -0.1670 -0.7753
vn 0.9347 0.1511 0.3216
vn 0.9477 0.1973 0.2511
vn 0.7530 -0.1825 -0.6322
vn 0.3401 -0.2190 -0.9145
vn 0.6743 0.4452 0.5892
vn 0.5244 -0.1808 -0.8321
vn 0.8400 0.0967 0.5340
vn 0.3256 0.0440 -0.9445
vn 0.5360 0.3810 0.7533
vn 0.2779 0.5405 0.7941
vn 0.6493 0.1673 0.7419
vn 0.1856 0.3610 -0.9139
vn 0.3923 0.2972 0.8705
vt 0.132201 0.033488
vt 0.123592 0.119987
vt 0.084401 0.100793
vt 0.355688 0.126115
vt 0.359123 0.045952
vt 0.402510 0.062866
vt 0.223802 0.076446
vt 0.204860 0.019170
vt 0.261536 0.030212
vt 0.170831 0.054634
vt 0.158995 0.000000
vt 0.318700 0.107025
vt 0.293234 0.037109
vt 0.073887 0.209606
vt 0.032973 0.196773
vt 0.220521 0.151532
vt 0.233576 0.249333
vt 0.174354 0.235281
vt 0.176213 0.140329
vt 0.312901 0.188324
vt 0.274842 0.170796
vt 0.264619 0.087575
vt 0.273957 0.261686
vt 0.127303 0.224122
vt 0.006064 0.319402
vt 0.037508 0.452572
vt 0.000000 0.458197
vt 0.154267 0.337276
vt 0.208407 0.442787
vt 0.154114 0.455395
vt 0.100117 0.325257
vt 0.047062 0.322755
vt 0.211799 0.338093
vt 0.251824 0.341401
vt 0.245129 0.437245
vt 0.090444 0.443494
vt 0.032421 0.592531
vt 0.104827 0.682602
vt 0.076193 0.698289
vt 0.232763 0.553931
vt 0.224607 0.665435
vt 0.185392 0.574749
vt 0.110570 0.565565
vt 0.065604 0.581069
vt 0.264306 0.542109
vt 0.299687 0.620216
vt 0.281306 0.644614
vt 0.143482 0.660960
vt 0.121307 0.766432
vt 0.185936 0.809459
vt 0.161924 0.826691
vt 0.272681 0.722081
vt 0.350268 0.743107
vt 0.315390 0.770507
vt 0.146165 0.747967
vt 0.330902 0.670587
vt 0.308226 0.688314
vt 0.241321 0.797356
vt 0.197185 0.829312
vt 0.369475 0.721127
vt 0.186409 0.724601
vt 0.172910 0.845141
vt 0.202508 0.844468
vt 0.177736 0.856856
vt 0.331554 0.787457
vt 0.375459 0.779865
vt 0.345173 0.805764
vt 0.386590 0.745949
vt 0.365103 0.760223
vt 0.259936 0.838529
vt 0.205506 0.861150
vt 0.397319 0.768021
vt 0.253083 0.817667
vt 0.383202 0.812673
vt 0.401290 0.835997
vt 0.381867 0.838324
vt 0.181239 0.870387
vt 0.208734 0.876680
vt 0.184958 0.884240
vt 0.354479 0.824963
vt 0.402510 0.802225
vt 0.358014 0.843715
vt 0.375989 0.893652
vt 0.358225 0.917196
vt 0.246713 0.932561
vt 0.216449 0.940269
vt 0.261536 0.858232
vt 0.391571 0.922607
vt 0.395624 0.897849
vt 0.194545 0.944634
vt 0.230003 0.965469
vt 0.211638 0.963067
vt 0.356213 0.952477
vt 0.196130 0.966555
vt 0.205515 0.985789
vt 0.203846 0.999614
vt 0.198165 0.985200
vt 0.214546 0.985681
vt 0.227117 1.000000
vt 0.226511 0.777968
vt 0.381588 0.978478
s 0
usemtl Material
f 8/1/1 11/2/1 14/3/1
f 6/4/2 4/5/2 7/6/2
f 10/7/3 2/8/3 9/9/3
f 1/10/4 5/11/4 2/8/4
f 3/12/5 9/13/5 4/5/5
f 14/3/6 16/14/6 19/15/6
f 15/16/7 17/17/7 20/18/7
f 1/10/8 15/19/8 11/2/8
f 3/12/9 13/20/9 12/21/9
f 10/22/10 12/21/10 15/16/10
f 12/21/11 18/23/11 17/17/11
f 11/2/12 20/24/12 16/14/12
f 24/25/13 26/26/13 29/27/13
f 25/28/14 27/29/14 30/30/14
f 16/14/15 25/31/15 21/32/15
f 20/18/16 22/33/16 25/28/16
f 19/15/17 21/32/17 24/25/17
f 17/17/18 23/34/18 22/33/18
f 22/33/19 28/35/19 27/29/19
f 21/32/20 30/36/20 26/26/20
f 34/37/21 36/38/21 39/39/21
f 32/40/22 40/41/22 35/42/22
f 26/26/23 35/43/23 31/44/23
f 30/30/24 32/40/24 35/42/24
f 29/27/25 31/44/25 34/37/25
f 27/29/26 33/45/26 32/40/26
f 32/40/27 38/46/27 37/47/27
f 31/44/28 40/48/28 36/38/28
f 44/49/29 46/50/29 49/51/29
f 45/52/30 47/53/30 50/54/30
f 40/48/31 41/55/31 36/38/31
f 37/47/32 45/52/32 40/41/32
f 39/39/33 41/55/33 44/49/33
f 37/47/34 43/56/34 42/57/34
f 46/50/35 55/58/35 51/59/35
f 42/57/36 48/60/36 47/53/36
f 45/61/37 46/50/37 41/55/37
f 54/62/38 56/63/38 59/64/38
f 55/65/39 57/66/39 60/67/39
f 47/53/40 55/65/40 50/54/40
f 49/51/41 51/59/41 54/62/41
f 47/53/42 53/68/42 52/69/42
f 56/63/43 65/70/43 61/71/43
f 52/69/44 58/72/44 57/66/44
f 51/59/45 60/73/45 56/63/45
f 62/74/46 68/75/46 67/76/46
f 64/77/47 66/78/47 69/79/47
f 60/67/48 62/74/48 65/80/48
f 59/64/49 61/71/49 64/77/49
f 57/66/50 63/81/50 62/74/50
f 70/82/51 72/83/51 75/84/51
f 66/78/52 75/85/52 71/86/52
f 61/71/53 70/87/53 66/78/53
f 65/80/54 67/76/54 70/82/54
f 76/88/55 72/83/55 73/89/55
f 69/79/56 71/86/56 74/90/56
f 67/76/57 73/89/57 72/83/57
f 71/86/58 77/91/58 78/92/58
f 76/88/59 77/93/59 75/84/59
f 74/90/60 78/92/60 79/94/60
f 82/95/61 84/96/61 83/97/61
f 78/92/62 81/98/62 82/95/62
f 80/99/63 81/98/63 77/91/63
f 79/94/64 82/95/64 83/97/64
f 92/1/65 95/2/65 85/10/65
f 88/5/66 90/4/66 91/6/66
f 86/8/67 94/7/67 93/9/67
f 89/11/68 85/10/68 86/8/68
f 93/13/69 87/12/69 88/5/69
f 98/3/70 100/14/70 95/2/70
f 99/16/71 101/17/71 96/21/71
f 85/10/72 99/19/72 94/7/72
f 87/12/73 97/20/73 90/4/73
f 94/22/74 96/21/74 87/12/74
f 96/21/75 102/23/75 97/20/75
f 95/2/76 104/24/76 99/19/76
f 108/25/77 110/26/77 105/32/77
f 109/28/78 111/29/78 106/33/78
f 100/14/79 109/31/79 104/24/79
f 104/18/80 106/33/80 101/17/80
f 103/15/81 105/32/81 100/14/81
f 101/17/82 107/34/82 102/23/82
f 106/33/83 112/35/83 107/34/83
f 105/32/84 114/36/84 109/31/84
f 118/37/85 120/38/85 115/44/85
f 124/41/86 116/40/86 119/42/86
f 110/26/87 119/43/87 114/36/87
f 114/30/88 116/40/88 111/29/88
f 113/27/89 115/44/89 110/26/89
f 111/29/90 117/45/90 112/35/90
f 116/40/91 122/46/91 117/45/91
f 115/44/92 124/48/92 119/43/92
f 128/49/93 130/50/93 125/55/93
f 129/52/94 131/53/94 126/57/94
f 125/55/95 124/48/95 120/38/95
f 129/52/96 121/47/96 124/41/96
f 123/39/97 125/55/97 120/38/97
f 121/47/98 127/56/98 122/46/98
f 130/50/99 139/58/99 134/100/99
f 126/57/100 132/60/100 127/56/100
f 130/50/101 129/61/101 125/55/101
f 138/62/102 140/63/102 135/59/102
f 139/65/103 141/66/103 136/69/103
f 139/65/104 131/53/104 134/54/104
f 133/51/105 135/59/105 130/50/105
f 131/53/106 137/68/106 132/60/106
f 140/63/107 149/70/107 144/73/107
f 136/69/108 142/72/108 137/68/108
f 135/59/109 144/73/109 139/58/109
f 146/74/110 152/75/110 147/81/110
f 148/77/111 150/78/111 145/71/111
f 144/67/112 146/74/112 141/66/112
f 143/64/113 145/71/113 140/63/113
f 141/66/114 147/81/114 142/72/114
f 154/82/115 156/83/115 151/76/115
f 150/78/116 159/85/116 154/87/116
f 145/71/117 154/87/117 149/70/117
f 149/80/118 151/76/118 146/74/118
f 160/88/119 156/83/119 159/84/119
f 153/79/120 155/86/120 150/78/120
f 151/76/121 157/89/121 152/75/121
f 155/86/122 161/91/122 159/85/122
f 161/93/123 160/88/123 159/84/123
f 158/90/124 162/92/124 155/86/124
f 168/96/125 166/95/125 167/97/125
f 162/92/126 165/98/126 161/91/126
f 165/98/127 164/99/127 161/91/127
f 163/94/128 166/95/128 162/92/128
f 176/1/129 179/2/129 169/10/129
f 172/5/130 174/4/130 175/6/130
f 170/8/131 178/7/131 177/9/131
f 173/11/132 169/10/132 170/8/132
f 177/13/133 171/12/133 172/5/133
f 182/3/134 184/14/134 179/2/134
f 183/16/135 185/17/135 180/21/135
f 169/10/136 183/19/136 178/7/136
f 171/12/137 181/20/137 174/4/137
f 178/22/138 180/21/138 171/12/138
f 180/21/139 186/23/139 181/20/139
f 179/2/140 188/24/140 183/19/140
f 192/25/141 194/26/141 189/32/141
f 193/28/142 195/29/142 190/33/142
f 184/14/143 193/31/143 188/24/143
f 188/18/144 190/33/144 185/17/144
f 187/15/145 189/32/145 184/14/145
f 185/17/146 191/34/146 186/23/146
f 190/33/147 196/35/147 191/34/147
f 189/32/148 198/36/148 193/31/148
f 202/37/149 204/38/149 199/44/149
f 208/41/150 200/40/150 203/42/150
f 194/26/151 203/43/151 198/36/151
f 198/30/152 200/40/152 195/29/152
f 197/27/153 199/44/153 194/26/153
f 195/29/154 201/45/154 196/35/154
f 200/40/155 206/46/155 201/45/155
f 199/44/156 208/48/156 203/43/156
f 212/49/157 214/50/157 209/55/157
f 213/52/158 215/53/158 210/57/158
f 209/55/159 208/48/159 204/38/159
f 213/52/160 205/47/160 208/41/160
f 207/39/161 209/55/161 204/38/161
f 205/47/162 211/56/162 206/46/162
f 214/50/163 223/58/163 218/100/163
f 210/57/164 216/60/164 211/56/164
f 214/50/165 213/61/165 209/55/165
f 222/62/166 224/63/166 219/59/166
f 223/65/167 225/66/167 220/69/167
f 223/65/168 215/53/168 218/54/168
f 217/51/169 219/59/169 214/50/169
f 215/53/170 221/68/170 216/60/170
f 224/63/171 233/70/171 228/73/171
f 220/69/172 226/72/172 221/68/172
f 219/59/173 228/73/173 223/58/173
f 230/74/174 236/75/174 231/81/174
f 232/77/175 234/78/175 229/71/175
f 228/67/176 230/74/176 225/66/176
f 227/64/177 229/71/177 224/63/177
f 225/66/178 231/81/178 226/72/178
f 238/82/179 240/83/179 235/76/179
f 234/78/180 243/85/180 238/87/180
f 229/71/181 238/87/181 233/70/181
f 233/80/182 235/76/182 230/74/182
f 244/88/183 240/83/183 243/84/183
f 237/79/184 239/86/184 234/78/184
f 235/76/185 241/89/185 236/75/185
f 239/86/186 245/91/186 243/85/186
f 245/93/187 244/88/187 243/84/187
f 242/90/188 246/92/188 239/86/188
f 252/96/189 250/95/189 251/97/189
f 246/92/190 249/98/190 245/91/190
f 249/98/191 248/99/191 245/91/191
f 247/94/192 250/95/192 246/92/192
f 260/1/193 263/2/193 266/3/193
f 258/4/194 256/5/194 259/6/194
f 262/7/195 254/8/195 261/9/195
f 253/10/196 257/11/196 254/8/196
f 255/12/197 261/13/197 256/5/197
f 266/3/198 268/14/198 271/15/198
f 267/16/199 269/17/199 272/18/199
f 253/10/200 267/19/200 263/2/200
f 255/12/201 265/20/201 264/21/201
f 262/22/202 264/21/202 267/16/202
f 264/21/203 270/23/203 269/17/203
f 263/2/204 272/24/204 268/14/204
f 276/25/205 278/26/205 281/27/205
f 277/28/206 279/29/206 282/30/206
f 268/14/207 277/31/207 273/32/207
f 272/18/208 274/33/208 277/28/208
f 271/15/209 273/32/209 276/25/209
f 269/17/210 275/34/210 274/33/210
f 274/33/211 280/35/211 279/29/211
f 273/32/212 282/36/212 278/26/212
f 286/37/213 288/38/213 291/39/213
f 284/40/214 292/41/214 287/42/214
f 278/26/215 287/43/215 283/44/215
f 282/30/216 284/40/216 287/42/216
f 281/27/217 283/44/217 286/37/217
f 279/29/218 285/45/218 284/40/218
f 284/40/219 290/46/219 289/47/219
f 283/44/220 292/48/220 288/38/220
f 296/49/221 298/50/221 301/51/221
f 297/52/222 299/53/222 302/54/222
f 292/48/223 293/55/223 288/38/223
f 289/47/224 297/52/224 292/41/224
f 291/39/225 293/55/225 296/49/225
f 289/47/226 295/56/226 294/57/226
f 298/50/227 307/58/227 303/59/227
f 294/57/228 300/60/228 299/53/228
f 297/61/229 298/50/229 293/55/229
f 306/62/230 308/63/230 311/64/230
f 307/65/231 309/66/231 312/67/231
f 299/53/232 307/65/232 302/54/232
f 301/51/233 303/59/233 306/62/233
f 299/53/234 305/68/234 304/69/234
f 308/63/235 317/70/235 313/71/235
f 304/69/236 310/72/236 309/66/236
f 303/59/237 312/73/237 308/63/237
f 314/74/238 320/75/238 319/76/238
f 316/77/239 318/78/239 321/79/239
f 312/67/240 314/74/240 317/80/240
f 311/64/241 313/71/241 316/77/241
f 309/66/242 315/81/242 314/74/242
f 322/82/243 324/83/243 327/84/243
f 318/78/244 327/85/244 323/86/244
f 313/71/245 322/87/245 318/78/245
f 317/80/246 319/76/246 322/82/246
f 328/88/247 324/83/247 325/89/247
f 321/79/248 323/86/248 326/90/248
f 319/76/249 325/89/249 324/83/249
f 323/86/250 329/91/250 330/92/250
f 328/88/251 329/93/251 327/84/251
f 326/90/252 330/92/252 331/94/252
f 334/95/253 336/96/253 335/97/253
f 330/92/254 333/98/254 334/95/254
f 332/99/255 333/98/255 329/91/255
f 331/94/256 334/95/256 335/97/256
f 8/1/257 1/10/257 11/2/257
f 6/4/258 3/12/258 4/5/258
f 10/7/259 1/10/259 2/8/259
f 1/10/260 8/1/260 5/11/260
f 3/12/261 10/22/261 9/13/261
f 14/3/262 11/2/262 16/14/262
f 15/16/263 12/21/263 17/17/263
f 1/10/264 10/7/264 15/19/264
f 3/12/265 6/4/265 13/20/265
f 10/22/266 3/12/266 12/21/266
f 12/21/267 13/20/267 18/23/267
f 11/2/268 15/19/268 20/24/268
f 24/25/269 21/32/269 26/26/269
f 25/28/270 22/33/270 27/29/270
f 16/14/271 20/24/271 25/31/271
f 20/18/272 17/17/272 22/33/272
f 19/15/273 16/14/273 21/32/273
f 17/17/274 18/23/274 23/34/274
f 22/33/275 23/34/275 28/35/275
f 21/32/276 25/31/276 30/36/276
f 34/37/277 31/44/277 36/38/277
f 32/40/278 37/47/278 40/41/278
f 26/26/279 30/36/279 35/43/279
f 30/30/280 27/29/280 32/40/280
f 29/27/281 26/26/281 31/44/281
f 27/29/282 28/35/282 33/45/282
f 32/40/283 33/45/283 38/46/283
f 31/44/284 35/43/284 40/48/284
f 44/49/285 41/55/285 46/50/285
f 45/52/286 42/57/286 47/53/286
f 40/48/287 45/61/287 41/55/287
f 37/47/288 42/57/288 45/52/288
f 39/39/289 36/38/289 41/55/289
f 37/47/290 38/46/290 43/56/290
f 46/50/291 50/100/291 55/58/291
f 42/57/292 43/56/292 48/60/292
f 45/61/293 50/100/293 46/50/293
f 54/62/294 51/59/294 56/63/294
f 55/65/295 52/69/295 57/66/295
f 47/53/296 52/69/296 55/65/296
f 49/51/297 46/50/297 51/59/297
f 47/53/298 48/60/298 53/68/298
f 56/63/299 60/73/299 65/70/299
f 52/69/300 53/68/300 58/72/300
f 51/59/301 55/58/301 60/73/301
f 62/74/302 63/81/302 68/75/302
f 64/77/303 61/71/303 66/78/303
f 60/67/304 57/66/304 62/74/304
f 59/64/305 56/63/305 61/71/305
f 57/66/306 58/72/306 63/81/306
f 70/82/307 67/76/307 72/83/307
f 66/78/308 70/87/308 75/85/308
f 61/71/309 65/70/309 70/87/309
f 65/80/310 62/74/310 67/76/310
f 76/88/311 75/84/311 72/83/311
f 69/79/312 66/78/312 71/86/312
f 67/76/313 68/75/313 73/89/313
f 71/86/314 75/85/314 77/91/314
f 76/88/315 80/101/315 77/93/315
f 74/90/316 71/86/316 78/92/316
f 82/95/317 81/98/317 84/96/317
f 78/92/318 77/91/318 81/98/318
f 80/99/319 84/96/319 81/98/319
f 79/94/320 78/92/320 82/95/320
f 92/1/321 98/3/321 95/2/321
f 88/5/322 87/12/322 90/4/322
f 86/8/323 85/10/323 94/7/323
f 89/11/324 92/1/324 85/10/324
f 93/13/325 94/22/325 87/12/325
f 98/3/326 103/15/326 100/14/326
f 99/16/327 104/18/327 101/17/327
f 85/10/328 95/2/328 99/19/328
f 87/12/329 96/21/329 97/20/329
f 94/22/330 99/16/330 96/21/330
f 96/21/331 101/17/331 102/23/331
f 95/2/332 100/14/332 104/24/332
f 108/25/333 113/27/333 110/26/333
f 109/28/334 114/30/334 111/29/334
f 100/14/335 105/32/335 109/31/335
f 104/18/336 109/28/336 106/33/336
f 103/15/337 108/25/337 105/32/337
f 101/17/338 106/33/338 107/34/338
f 106/33/339 111/29/339 112/35/339
f 105/32/340 110/26/340 114/36/340
f 118/37/341 123/39/341 120/38/341
f 124/41/342 121/47/342 116/40/342
f 110/26/343 115/44/343 119/43/343
f 114/30/344 119/42/344 116/40/344
f 113/27/345 118/37/345 115/44/345
f 111/29/346 116/40/346 117/45/346
f 116/40/347 121/47/347 122/46/347
f 115/44/348 120/38/348 124/48/348
f 128/49/349 133/51/349 130/50/349
f 129/52/350 134/54/350 131/53/350
f 125/55/351 129/61/351 124/48/351
f 129/52/352 126/57/352 121/47/352
f 123/39/353 128/49/353 125/55/353
f 121/47/354 126/57/354 127/56/354
f 130/50/355 135/59/355 139/58/355
f 126/57/356 131/53/356 132/60/356
f 130/50/357 134/100/357 129/61/357
f 138/62/358 143/64/358 140/63/358
f 139/65/359 144/67/359 141/66/359
f 139/65/360 136/69/360 131/53/360
f 133/51/361 138/62/361 135/59/361
f 131/53/362 136/69/362 137/68/362
f 140/63/363 145/71/363 149/70/363
f 136/69/364 141/66/364 142/72/364
f 135/59/365 140/63/365 144/73/365
f 146/74/366 151/76/366 152/75/366
f 148/77/367 153/79/367 150/78/367
f 144/67/368 149/80/368 146/74/368
f 143/64/369 148/77/369 145/71/369
f 141/66/370 146/74/370 147/81/370
f 154/82/371 159/84/371 156/83/371
f 150/78/372 155/86/372 159/85/372
f 145/71/373 150/78/373 154/87/373
f 149/80/374 154/82/374 151/76/374
f 160/88/375 157/89/375 156/83/375
f 153/79/376 158/90/376 155/86/376
f 151/76/377 156/83/377 157/89/377
f 155/86/378 162/92/378 161/91/378
f 161/93/379 164/101/379 160/88/379
f 158/90/380 163/94/380 162/92/380
f 168/96/381 165/98/381 166/95/381
f 162/92/382 166/95/382 165/98/382
f 165/98/383 168/96/383 164/99/383
f 163/94/384 167/97/384 166/95/384
f 176/1/385 182/3/385 179/2/385
f 172/5/386 171/12/386 174/4/386
f 170/8/387 169/10/387 178/7/387
f 173/11/388 176/1/388 169/10/388
f 177/13/389 178/22/389 171/12/389
f 182/3/390 187/15/390 184/14/390
f 183/16/391 188/18/391 185/17/391
f 169/10/392 179/2/392 183/19/392
f 171/12/393 180/21/393 181/20/393
f 178/22/394 183/16/394 180/21/394
f 180/21/395 185/17/395 186/23/395
f 179/2/396 184/14/396 188/24/396
f 192/25/397 197/27/397 194/26/397
f 193/28/398 198/30/398 195/29/398
f 184/14/399 189/32/399 193/31/399
f 188/18/400 193/28/400 190/33/400
f 187/15/401 192/25/401 189/32/401
f 185/17/402 190/33/402 191/34/402
f 190/33/403 195/29/403 196/35/403
f 189/32/404 194/26/404 198/36/404
f 202/37/405 207/39/405 204/38/405
f 208/41/406 205/47/406 200/40/406
f 194/26/407 199/44/407 203/43/407
f 198/30/408 203/42/408 200/40/408
f 197/27/409 202/37/409 199/44/409
f 195/29/410 200/40/410 201/45/410
f 200/40/411 205/47/411 206/46/411
f 199/44/412 204/38/412 208/48/412
f 212/49/413 217/51/413 214/50/413
f 213/52/414 218/54/414 215/53/414
f 209/55/415 213/61/415 208/48/415
f 213/52/416 210/57/416 205/47/416
f 207/39/417 212/49/417 209/55/417
f 205/47/418 210/57/418 211/56/418
f 214/50/419 219/59/419 223/58/419
f 210/57/420 215/53/420 216/60/420
f 214/50/421 218/100/421 213/61/421
f 222/62/422 227/64/422 224/63/422
f 223/65/423 228/67/423 225/66/423
f 223/65/424 220/69/424 215/53/424
f 217/51/425 222/62/425 219/59/425
f 215/53/426 220/69/426 221/68/426
f 224/63/427 229/71/427 233/70/427
f 220/69/428 225/66/428 226/72/428
f 219/59/429 224/63/429 228/73/429
f 230/74/430 235/76/430 236/75/430
f 232/77/431 237/79/431 234/78/431
f 228/67/432 233/80/432 230/74/432
f 227/64/433 232/77/433 229/71/433
f 225/66/434 230/74/434 231/81/434
f 238/82/435 243/84/435 240/83/435
f 234/78/436 239/86/436 243/85/436
f 229/71/437 234/78/437 238/87/437
f 233/80/438 238/82/438 235/76/438
f 244/88/439 241/89/439 240/83/439
f 237/79/440 242/90/440 239/86/440
f 235/76/441 240/83/441 241/89/441
f 239/86/442 246/92/442 245/91/442
f 245/93/443 248/101/443 244/88/443
f 242/90/444 247/94/444 246/92/444
f 252/96/445 249/98/445 250/95/445
f 246/92/446 250/95/446 249/98/446
f 249/98/447 252/96/447 248/99/447
f 247/94/448 251/97/448 250/95/448
f 260/1/449 253/10/449 263/2/449
f 258/4/450 255/12/450 256/5/450
f 262/7/451 253/10/451 254/8/451
f 253/10/452 260/1/452 257/11/452
f 255/12/453 262/22/453 261/13/453
f 266/3/454 263/2/454 268/14/454
f 267/16/455 264/21/455 269/17/455
f 253/10/456 262/7/456 267/19/456
f 255/12/457 258/4/457 265/20/457
f 262/22/458 255/12/458 264/21/458
f 264/21/459 265/20/459 270/23/459
f 263/2/460 267/19/460 272/24/460
f 276/25/461 273/32/461 278/26/461
f 277/28/462 274/33/462 279/29/462
f 268/14/463 272/24/463 277/31/463
f 272/18/464 269/17/464 274/33/464
f 271/15/465 268/14/465 273/32/465
f 269/17/466 270/23/466 275/34/466
f 274/33/467 275/34/467 280/35/467
f 273/32/468 277/31/468 282/36/468
f 286/37/469 283/44/469 288/38/469
f 284/40/470 289/47/470 292/41/470
f 278/26/471 282/36/471 287/43/471
f 282/30/472 279/29/472 284/40/472
f 281/27/473 278/26/473 283/44/473
f 279/29/474 280/35/474 285/45/474
f 284/40/475 285/45/475 290/46/475
f 283/44/476 287/43/476 292/48/476
f 296/49/477 293/55/477 298/50/477
f 297/52/478 294/57/478 299/53/478
f 292/48/479 297/61/479 293/55/479
f 289/47/480 294/57/480 297/52/480
f 291/39/481 288/38/481 293/55/481
f 289/47/482 290/46/482 295/56/482
f 298/50/483 302/100/483 307/58/483
f 294/57/484 295/56/484 300/60/484
f 297/61/485 302/100/485 298/50/485
f 306/62/486 303/59/486 308/63/486
f 307/65/487 304/69/487 309/66/487
f 299/53/488 304/69/488 307/65/488
f 301/51/489 298/50/489 303/59/489
f 299/53/490 300/60/490 305/68/490
f 308/63/491 312/73/491 317/70/491
f 304/69/492 305/68/492 310/72/492
f 303/59/493 307/58/493 312/73/493
f 314/74/494 315/81/494 320/75/494
f 316/77/495 313/71/495 318/78/495
f 312/67/496 309/66/496 314/74/496
f 311/64/497 308/63/497 313/71/497
f 309/66/498 310/72/498 315/81/498
f 322/82/499 319/76/499 324/83/499
f 318/78/500 322/87/500 327/85/500
f 313/71/501 317/70/501 322/87/501
f 317/80/502 314/74/502 319/76/502
f 328/88/503 327/84/503 324/83/503
f 321/79/504 318/78/504 323/86/504
f 319/76/505 320/75/505 325/89/505
f 323/86/506 327/85/506 329/91/506
f 328/88/507 332/101/507 329/93/507
f 326/90/508 323/86/508 330/92/508
f 334/95/509 333/98/509 336/96/509
f 330/92/510 329/91/510 333/98/510
f 332/99/511 336/96/511 333/98/511
f 331/94/512 330/92/512 334/95/512
o black_stones_around.002
v 0.000000 3.104260 -1.363781
v 0.103220 3.139123 -1.058471
v 0.000000 3.327551 -0.815727
v -0.103220 3.139123 -1.058471
v 0.000000 3.428770 -1.176481
vn 0.9227 0.1927 -0.3339
vn 0.9227 0.3712 0.1042
vn -0.9227 0.3712 0.1042
vn -0.9227 0.1927 -0.3339
vt 0.867057 0.945363
vt 0.741273 0.813213
vt 0.876559 0.752990
vt 0.727256 0.631310
vt 0.598358 0.774428
vt 0.674449 0.945363
s 0
usemtl Material
f 337/102/513 341/103/513 338/104/513
f 338/104/514 341/103/514 339/105/514
f 339/105/515 341/103/515 340/106/515
f 340/107/516 341/103/516 337/102/516
o black_stones_around.001
v 0.000000 2.439573 -2.177876
v 0.103220 2.586443 -1.907952
v 0.000000 2.852185 -1.753643
v -0.103220 2.586443 -1.907952
v 0.000000 2.810651 -2.126018
vn 0.9227 0.0534 -0.3819
vn 0.9227 0.3832 -0.0427
vn -0.9227 0.3832 -0.0427
vn -0.9227 0.0534 -0.3819
vt 0.867057 0.945363
vt 0.741273 0.813213
vt 0.876559 0.752990
vt 0.727256 0.631310
vt 0.598358 0.774428
vt 0.674449 0.945363
s 0
usemtl Material
f 342/108/517 346/109/517 343/110/517
f 343/110/518 346/109/518 344/111/518
f 344/111/519 346/109/519 345/112/519
f 345/113/520 346/109/520 342/108/520
o black_stones_around.003
v 0.000000 1.576040 -2.581571
v 0.103220 1.826383 -2.403363
v 0.000000 2.132876 -2.381182
v -0.103220 1.826383 -2.403363
v 0.000000 1.932289 -2.697652
vn 0.9227 -0.1195 -0.3666
vn 0.9227 0.3257 -0.2064
vn -0.9227 0.3257 -0.2064
vn -0.9227 -0.1195 -0.3666
vt 0.867057 0.945363
vt 0.741273 0.813213
vt 0.876559 0.752990
vt 0.727256 0.631310
vt 0.598358 0.774428
vt 0.674449 0.945363
s 0
usemtl Material
f 347/114/521 351/115/521 348/116/521
f 348/116/522 351/115/522 349/117/522
f 349/117/523 351/115/523 350/118/523
f 350/119/524 351/115/524 347/114/524
o black_stones_around.004
v 0.000000 0.484057 -2.452345
v 0.103220 0.791267 -2.459501
v 0.000000 1.050031 -2.625245
v -0.103220 0.791267 -2.459501
v 0.000000 0.699889 -2.758619
vn 0.9227 -0.3152 -0.2221
vn 0.9227 0.1373 -0.3603
vn -0.9227 0.1373 -0.3603
vn -0.9227 -0.3152 -0.2221
vt 0.867057 0.945363
vt 0.741273 0.813213
vt 0.876559 0.752990
vt 0.727256 0.631310
vt 0.598358 0.774428
vt 0.674449 0.945363
s 0
usemtl Material
f 352/120/525 356/121/525 353/122/525
f 353/122/526 356/121/526 354/123/526
f 354/123/527 356/121/527 355/124/527
f 355/125/528 356/121/528 352/120/528
o black_stones_around.005
v -0.000000 3.728292 -0.266664
v 0.064180 3.911273 -0.211655
v -0.000000 4.096196 -0.259734
v -0.064180 3.911273 -0.211655
v -0.000000 3.914935 -0.406093
vn 0.9227 -0.2308 -0.3089
vn 0.9227 0.2422 -0.3000
vn -0.9227 0.2422 -0.3000
vn -0.9227 -0.2308 -0.3089
vt 0.867057 0.945363
vt 0.741273 0.813213
vt 0.876559 0.752990
vt 0.727256 0.631310
vt 0.598358 0.774428
vt 0.674449 0.945363
s 0
usemtl Material
f 357/126/529 361/127/529 358/128/529
f 358/128/530 361/127/530 359/129/530
f 359/129/531 361/127/531 360/130/531
f 360/131/532 361/127/532 357/126/532
